<?xml version="1.0" encoding="utf-8"?>
<!-- Generator: Adobe Illustrator 19.1.0, SVG Export Plug-In . SVG Version: 6.00 Build 0)  -->
<svg version="1.1" id="Layer_1" xmlns="http://www.w3.org/2000/svg" xmlns:xlink="http://www.w3.org/1999/xlink" x="0px" y="0px"
	 viewBox="0 0 400 400" style="enable-background:new 0 0 400 400;" xml:space="preserve">
<style type="text/css">
	.st0{display:none;}
	.st1{display:inline;fill:none;stroke:url(#SVGID_1_);stroke-width:5;stroke-miterlimit:10;}
	.st2{display:inline;fill:none;stroke:url(#SVGID_2_);stroke-miterlimit:10;}
	.st3{display:inline;fill:none;stroke:url(#SVGID_3_);stroke-miterlimit:10;}
	.st4{display:none;fill:url(#SVGID_4_);}
	.st5{display:none;fill:url(#SVGID_5_);}
	.st6{fill:url(#SVGID_6_);}
	.st7{display:none;fill:url(#SVGID_7_);}
	.st8{display:none;fill:url(#SVGID_8_);}
	.st9{display:none;fill:url(#SVGID_9_);}
	.st10{display:none;fill:url(#SVGID_10_);}
	.st11{display:none;fill:url(#SVGID_11_);}
</style>
<g class="st0">
	<linearGradient id="SVGID_1_" gradientUnits="userSpaceOnUse" x1="60.4162" y1="192.0408" x2="349.77" y2="192.0408">
		<stop  offset="0" style="stop-color:#001C2A"/>
		<stop  offset="0.1592" style="stop-color:#002133"/>
		<stop  offset="0.4238" style="stop-color:#00304D"/>
		<stop  offset="0.7592" style="stop-color:#004876"/>
		<stop  offset="0.9944" style="stop-color:#005B97"/>
	</linearGradient>
	<circle class="st1" cx="205.1" cy="192" r="142.2"/>
	<linearGradient id="SVGID_2_" gradientUnits="userSpaceOnUse" x1="56.8839" y1="192.0408" x2="353.3023" y2="192.0408">
		<stop  offset="0" style="stop-color:#001C2A"/>
		<stop  offset="0.1592" style="stop-color:#002133"/>
		<stop  offset="0.4238" style="stop-color:#00304D"/>
		<stop  offset="0.7592" style="stop-color:#004876"/>
		<stop  offset="0.9944" style="stop-color:#005B97"/>
	</linearGradient>
	<circle class="st2" cx="205.1" cy="192" r="147.7"/>
	<linearGradient id="SVGID_3_" gradientUnits="userSpaceOnUse" x1="69.5404" y1="192.0408" x2="340.6458" y2="192.0408">
		<stop  offset="0" style="stop-color:#001C2A"/>
		<stop  offset="0.1592" style="stop-color:#002133"/>
		<stop  offset="0.4238" style="stop-color:#00304D"/>
		<stop  offset="0.7592" style="stop-color:#004876"/>
		<stop  offset="0.9944" style="stop-color:#005B97"/>
	</linearGradient>
	<circle class="st3" cx="205.1" cy="192" r="135.1"/>
</g>
<linearGradient id="SVGID_4_" gradientUnits="userSpaceOnUse" x1="101.0262" y1="195.3175" x2="314.9286" y2="195.3175">
	<stop  offset="0" style="stop-color:#001C2A"/>
	<stop  offset="0.1592" style="stop-color:#002133"/>
	<stop  offset="0.4238" style="stop-color:#00304D"/>
	<stop  offset="0.7592" style="stop-color:#004876"/>
	<stop  offset="0.9944" style="stop-color:#005B97"/>
</linearGradient>
<path class="st4" d="M101,227c0-1.9,0.1-4.1,0.2-6.6c0-1.4,0.1-2.9,0.2-4.5c0.1-5.1,1.4-8.3,3.9-10.1c3.5-2.5,7.9-1.1,11.8,0.1
	c3.2,1,6.4,2,8.1,0.7c1-0.8,2.8-3.4,2.8-12c0-7.2-1.4-9.8-2.6-10.7c-1.8-1.4-5.2-0.5-8.6,0.3c-4,1-8.2,2.1-11.4-0.4
	c-2.1-1.7-3.2-4.5-3.2-8.6l0-3.2c0-9.8-0.1-15.7,3.6-19.4c2.6-2.6,6.6-3.7,13.9-3.7c3.2,0,6.6,0.5,9.7,0.9c2.4,0.3,5.9,0.8,7.5,0.6
	c-2-6.6-4.8-16.4-0.2-22.6c2.6-3.5,7-5.2,13.1-5.2c10.4,0,15.2,4.3,17.4,7.9c3.2,5.3,2.4,11.8,0.3,15.9c-1.2,2.2-1.4,3.3-1.4,3.8
	c1.3,0.4,5.3-0.2,7.5-0.5c1.6-0.2,3.2-0.5,4.7-0.6l1.5-0.1c7.1-0.6,11.9-1,15,1.9c2.8,2.6,3.2,7,3.2,11.3c0,8.7,0,18.5-5.6,22.3
	c-2.8,1.9-6.5,1.9-10.9,0.1c-3.1-1.3-9.5-3.9-12.9-1.6c-2.3,1.6-3.6,5.6-3.6,11.7c0,4,0.7,9.2,4.2,11.1c3.4,1.9,8.7,0.3,12.5-2
	c4.3-2.7,7.6-2,9.5-0.9c5.5,3,8.3,12.7,8.3,28.6c0,0.9,1.5,1.7,2.2,2c5.7,2.5,16.5,1.5,20.4-1.9c1.2-1,1.4-2,1-3.5
	c-2.2-6.9-1.9-12.4,0.9-16.4c2.6-3.7,7.1-5.6,13.4-5.7c7.7-0.1,13.4,1.9,16.7,6c3,3.7,3.7,8.7,2.2,15c-1,4.4-0.7,5.9-0.4,6.3
	c1.1,1.3,6.9,1.6,13.7,1.6h0.6c4.1,0,6.9-0.9,8.2-2.3c1.9-2,1.8-6.4,1.6-11.7c0-1.5-0.1-3.1-0.1-4.7l0-0.8c0-4.5-0.1-10.5,3.6-13
	c1.2-0.8,3.4-1.5,6.4-0.2c0.4,0.2,0.9,0.4,1.4,0.6c3.2,1.5,10,4.7,13.6,2.3c2.5-1.6,3.9-6,3.9-12.6c0-4.4-0.8-10.2-4.6-12.3
	c-4-2.2-9.9-0.2-12.7,1.6c-3.5,2.2-6.2,1.4-7.5,0.7c-4.9-2.7-5-10.9-5-11.3c0-2.6,0.1-5.1,0.3-7.3c0.3-5.2,0.5-9.2-1.3-11.1
	c-1.4-1.5-4.8-2.3-10-2.3c-4,0-13.5,0-14.7,1.8c-0.2,0.2-0.6,1.3,1.1,5.6c2.4,6.2,2.2,12.2-0.7,16.4c-2,3-6.3,6.5-15.2,6.5
	c-7.2,0-12.1-1.7-15-5.2c-3.9-4.7-3.1-11.7-1.8-17.9c0.6-3.1-0.4-4-0.7-4.3c-2.6-2.4-10.6-1.5-15.5-0.1c-1.6,0.5-3.3-0.5-3.8-2.1
	c-0.5-1.6,0.5-3.3,2.1-3.8c1.5-0.4,15.2-4.1,21.4,1.5c1.8,1.6,3.6,4.7,2.5,10c-1.4,6.6-1.2,10.6,0.6,12.8c1.6,1.9,5,2.9,10.2,2.9
	c3.4,0,8-0.7,10.1-3.8c1.7-2.5,1.7-6.5,0.1-10.7c-1.5-3.8-2.7-8.1-0.5-11.4c2.6-3.8,8.2-4.5,19.8-4.5c7.2,0,11.7,1.3,14.4,4.2
	c3.6,3.8,3.3,9.3,2.9,15.7c-0.1,2.2-0.2,4.5-0.2,7c0,2.9,1.2,5.7,1.8,5.9c0.1,0,0.4,0,1.2-0.5c3.6-2.3,12.2-5.6,19-1.8
	c5.2,2.9,7.8,8.8,7.8,17.7c0,9.1-2.2,14.9-6.7,17.8c-6.5,4.1-15,0.2-19.6-1.9c-0.5-0.2-0.9-0.4-1.3-0.6c-0.3-0.1-0.5-0.2-0.6-0.2
	c-0.8,1.3-0.8,6-0.8,7.7l0,0.8c0,1.6,0.1,3.1,0.1,4.5c0.2,6.6,0.4,12.5-3.4,16.3c-2.6,2.7-6.6,4.2-12.7,4.2h-0.6
	c-10.1,0-15.7-0.2-18.6-3.9c-2.4-3-1.8-7.3-0.8-11.5c1-4.3,0.7-7.6-1-9.7c-2.5-3.1-7.8-3.8-11.7-3.7c-4.2,0.1-7,1.1-8.4,3.1
	c-2,2.8-1.1,7.5,0,10.9c1.2,3.7,0.2,7.3-2.8,9.9c-6.2,5.5-19.8,6.1-27,2.9c-5.1-2.3-5.8-5.8-5.8-7.7c0-15.1-2.7-21.9-5.1-23.2
	c-0.3-0.2-1.2-0.6-3.3,0.7c-5.1,3.2-12.8,5.5-18.8,2.2c-3.4-1.9-7.4-6.2-7.4-16.5c0-8.5,2.1-14,6.3-16.8c6.2-4.1,14.6-0.6,18.7,1.1
	c1.6,0.7,3.8,1.3,5.1,0.5c2.9-1.9,2.9-11.1,2.9-17.2c0-3.7-0.4-6-1.2-6.7c-1.2-1.1-5.2-0.8-10.3-0.3l-1.6,0.1
	c-1.3,0.1-2.7,0.3-4.2,0.6c-5.4,0.8-11,1.7-13.6-1.9c-2.3-3.2-0.5-7.4,1.1-10.3c1.3-2.5,1.8-6.6-0.1-9.9c-2-3.2-6.1-5-12.1-5
	c-4,0-6.8,0.9-8.1,2.7c-2.9,3.8-0.4,12,1.2,17.4c0.8,2.8,0,4.6-0.8,5.6c-2.5,2.9-7.3,2.2-13.5,1.4c-3-0.4-6.1-0.8-8.9-0.8
	c-5.3,0-8.2,0.6-9.5,1.9c-1.9,1.9-1.9,7.1-1.8,15l0,3.3c0,3,0.7,3.7,0.8,3.7c0.8,0.6,4-0.2,6.1-0.7c4.3-1.1,9.7-2.5,13.9,0.8
	c3.4,2.7,5,7.6,5,15.6c0,8.9-1.7,14.3-5.3,17c-4.1,3.1-9.3,1.5-13.5,0.2c-2.4-0.7-5.4-1.6-6.4-1c-0.3,0.2-1.2,1.2-1.3,5.3
	c0,1.6-0.1,3.2-0.2,4.6c-0.2,6.8-0.4,11.4,1,12.9c1.5,1.5,6.3,1.8,13,1.8c16.4,0,19.8,0,21.4,3c1.2,2.3-0.2,4.4-1.4,6.2
	c-0.9,1.3-2,3-2.8,5.1c-1.1,3-0.9,5.5,0.5,7.5c2.1,3,6.7,4.7,12.8,4.7c5.9,0,9.8-1.1,11.2-3.1c1.2-1.7,1-4.7-0.7-9.5
	c-1.5-4.1-2.5-8.3-0.2-11.5c3-4.2,9.8-4.5,24.5-4.2c1.7,0,3,1.5,3,3.1c0,1.7-1.4,3.1-3.1,3c-7.2-0.2-18-0.4-19.4,1.6
	c-0.2,0.3-0.6,1.5,1,5.8c1.7,4.6,3.2,10.5,0,15.1c-2.7,3.8-8,5.7-16.3,5.7c-8.1,0-14.6-2.7-17.8-7.3c-1.8-2.6-3.5-6.9-1.2-13.2
	c0.9-2.5,2.1-4.4,3-5.8c-3.2-0.2-8.9-0.2-14.4-0.2c-9.4,0-14.4-0.6-17.5-3.7C101.6,235.4,101,232.1,101,227z"/>
<linearGradient id="SVGID_5_" gradientUnits="userSpaceOnUse" x1="149.9778" y1="192.0408" x2="262" y2="192.0408">
	<stop  offset="0" style="stop-color:#001C2A"/>
	<stop  offset="0.1592" style="stop-color:#002133"/>
	<stop  offset="0.4238" style="stop-color:#00304D"/>
	<stop  offset="0.7592" style="stop-color:#004876"/>
	<stop  offset="0.9944" style="stop-color:#005B97"/>
</linearGradient>
<path class="st5" d="M207.8,293.7c-30.1,0-47.9-7.4-52.8-22c-8.6-25.7,27.4-65.8,48.6-81.6c19.3-14.4,59.2-53.6,51.6-76.3
	c-3.9-11.7-20.5-17.7-49.4-17.7c-28.5,0-45,5.9-49.1,17.6c-7.8,22.2,29.4,59,34.9,63.5c3,2.4,4.7,2.5,5,2.4c0.2-0.4,0.1-3.2-3.4-6.8
	c-0.8-0.8-1.8-1.8-3-2.9c-6.2-6-14.8-14.2-11.8-21.4c2.4-5.9,11.5-8.5,28.8-8.3c14.9,0.2,22.7,3,24.5,9c3,10.2-15.9,23.1-19.7,25.6
	c-1.3,0.9-3.1,0.5-4-0.8c-0.9-1.3-0.5-3.1,0.8-4c7.7-5,18.6-14.6,17.3-19.1c-0.3-1.1-2.6-4.7-19-4.8c-19.8-0.2-22.9,3.6-23.4,4.7
	c-1.4,3.5,6.6,11.3,10.5,15c1.2,1.1,2.3,2.2,3.1,3.1c5,5.3,6.5,11.5,3.4,14.8c-1,1.1-5,4.4-12.8-1.9c-0.5-0.4-46.7-41.6-36.8-69.9
	c5-14.3,23.4-21.5,54.5-21.5c31.7,0,50.2,7.3,54.9,21.6c8.6,25.9-32.4,67-53.7,82.8c-19.4,14.4-54.2,52.5-46.6,75.1
	c4.1,12.1,20.3,18.2,48.4,18c26.4-0.2,42.4-7.1,46.1-19.9c5.5-19.2-16-47.9-32.7-58.4c-5.4-3.4-9.9-4.6-11.7-3.2
	c-0.5,0.9-0.9,3.8-0.4,12.7c0.5,7.8,11.4,15.1,21,21.6c5.1,3.4,9.9,6.6,13.1,9.8c5,5,6.6,10.8,4.4,16c-3.9,9.3-18.7,14.6-40.8,14.6
	c-23.9,0-38.9-4.9-42.4-13.7c-1.4-3.6-1.5-9.5,6.2-16.6c12.7-11.7,25.2-21.1,25.3-21.2c1.3-1,3.1-0.7,4.1,0.6c1,1.3,0.7,3.1-0.6,4.1
	c-0.1,0.1-12.4,9.3-24.9,20.8c-2.9,2.7-6.2,6.7-4.8,10.3c1.9,4.8,12.6,10,37,10c22.7,0,33.2-5.7,35.4-11.1c1.7-4-1.3-7.8-3.2-9.7
	c-2.8-2.8-7.4-5.9-12.2-9.1c-10.8-7.2-23-15.4-23.6-26.1c-0.6-9.4-0.4-15,2.2-17.3c2.8-2.5,8.4-4.1,18.8,2.5
	c18.6,11.7,41.5,42.9,35.1,64.9c-3.1,10.9-14.6,23.9-51.6,24.1C208.6,293.7,208.2,293.7,207.8,293.7z"/>
<linearGradient id="SVGID_6_" gradientUnits="userSpaceOnUse" x1="6.6034" y1="200" x2="393.3966" y2="200">
	<stop  offset="0" style="stop-color:#001C2A"/>
	<stop  offset="0.1592" style="stop-color:#002133"/>
	<stop  offset="0.4238" style="stop-color:#00304D"/>
	<stop  offset="0.7592" style="stop-color:#004876"/>
	<stop  offset="0.9944" style="stop-color:#005B97"/>
</linearGradient>
<path class="st6" d="M213.4,396.3c-16.6,0-30.2-4-40-11.9c-9.9-8-15.4-19.8-16.1-34.1c-0.4-8.4-2.9-13.7-7.5-16
	c-7.3-3.5-20.3,0-32.5,8.8c-35.6,25.7-66.7-14.3-76.9-27.4C23.2,293.6,58,212.5,105.7,163.5c47.3-48.5,96.6-58.1,138.9-26.9
	c26.2,19.4,38.3,44.6,33.9,71.1c-4.6,28-28.1,54.1-57,63.3c-24.7,7.9-49,2.3-66.6-15.5c-19.4-19.5-26-42.2-18.7-63.9
	c7.6-22.8,29.5-40.4,54.4-44c21.9-3.1,41.8,5.6,54.6,24c2.2,3.1,1.4,7.4-1.7,9.6c-3.1,2.2-7.4,1.4-9.6-1.7
	c-13.3-19.1-31.6-19.6-41.3-18.2c-19.6,2.8-37.4,17.1-43.3,34.7c-3.9,11.7-4.4,29.8,15.4,49.8c18.9,19.1,41.1,15.7,52.6,12
	c24.2-7.7,43.8-29.3,47.6-52.4c2.5-14.9-0.5-37.1-28.5-57.8c-46.1-34.1-91.2-5-120.8,25.4c-49.4,50.7-73.7,122-64.3,134.1
	c29.2,37.6,45.7,33.6,58,24.7c16.6-12,34.5-15.9,46.5-10.1c6.5,3.2,14.5,10.5,15.3,27.8c0.5,10.4,4.2,18.5,11,24
	c10.4,8.4,27.7,10.9,50,7.1c19.1-3.2,31.7-9.1,37.6-17.4c4.1-5.8,5.2-13.4,3.4-23.2c-2.5-13.6,2-26.6,12-34.6
	c9.9-7.9,23.4-9.4,36.1-4c13.9,5.9,27.6,1.3,49.3-40.7c8.4-16.2,10.8-27.6,7.8-36.1c-3-8.3-11.8-15.2-28.6-22.4
	c-13.1-5.6-20-12.9-20.8-21.8c-1.2-15.3,16.7-28.7,32.5-38.7c6.5-4.1,7.9-8,8.4-10.5c2.1-11.1-10.2-29.5-22.5-46.1
	c-22.3-30.1-32.1-28.8-56.7-17c-15.4,7.4-36.8,14.3-51.2,5.7c-5.3-3.2-11.7-9.9-12.2-23.8c-0.8-22.7-1.3-34.1-51-32.8
	c-23.3,0.6-37.4,4.2-43.1,11c-3.7,4.4-4.5,11-2.6,22.6c2.6,16.3-3.6,33.2-15.7,43c-11.5,9.3-26.6,11-42.5,4.9
	c-22.2-8.6-27-7-44.1,33.4c-8.7,20.6-10.2,36.5-4.3,46c5.6,9.1,16.8,10,16.9,10c3.8,0.2,6.7,3.5,6.5,7.3c-0.2,3.8-3.5,6.7-7.3,6.5
	c-0.7,0-18.3-1.2-27.8-16.5C3.7,172,4.9,152.2,15.5,127c16.7-39.6,27-54.3,61.8-40.9c11.3,4.4,21.2,3.4,28.8-2.7
	c8.2-6.7,12.6-18.8,10.8-30.1c-1.8-11.1-2.4-23.8,5.7-33.5c8.6-10.3,25.1-15.2,53.4-16C235,2.4,240.1,21,241.1,49.8
	c0.3,9.4,4.2,11.7,5.5,12.5c6.9,4.1,21.1,1.8,38.1-6.3c30.2-14.4,47.1-14.7,73.8,21.3c17.5,23.7,27.8,41.5,25,56.8
	c-1.5,7.8-6.4,14.4-14.6,19.6c-23.3,14.8-26.3,22.6-26.1,25.9c0.3,3.3,4.8,7,12.4,10.2c20.6,8.7,31.7,18.1,36.2,30.4
	c4.5,12.4,1.8,27.4-8.5,47.2c-15.8,30.6-36.2,60.1-67,47c-8-3.4-16.1-2.7-22.1,2.1c-6,4.8-8.6,12.7-7.1,21.3
	c2.5,13.6,0.6,24.6-5.7,33.6c-8.1,11.6-23.4,19.1-46.6,23.1C227,395.7,220,396.3,213.4,396.3z"/>
<linearGradient id="SVGID_7_" gradientUnits="userSpaceOnUse" x1="83.4153" y1="191.8898" x2="326.7708" y2="191.8898">
	<stop  offset="0" style="stop-color:#FFFFFF"/>
	<stop  offset="0.9944" style="stop-color:#FFF8F1"/>
</linearGradient>
<path class="st7" d="M206.1,274.8c-4.2,0-8.3-1.1-11.2-3.3c-6.5-1.5-13.4-4.7-18.5-8.5c-1.8-1.3-3.3-2.7-4.5-4
	c-8.5-2.2-17-7.9-22-14.5c-1.9-0.9-3.9-2.1-5.9-3.6c-6.7-5-12.8-12.3-15.4-19.3c-0.3-0.2-0.6-0.5-0.9-0.7
	c-7.4-5.8-15.4-17.6-11.3-24.4c0.7-1.2,1.5-2.7,2.4-4.3c4-7.3,10-18.4,22.2-31.9c3.3-3.7,6.4-6.9,9.1-9.7c5.9-6.1,11-11.4,10.9-13.9
	c0-0.2,0-0.6-0.7-1.2c-1.7-1.5-3.5-3.1-5.2-4.8c-6.8-6.3-16.1-14.9-20.3-14.5c-0.4,0-0.8,0.2-1.2,0.7c-2.1,2.8-6.1,7.6-10.7,13.2
	c-10.5,12.7-32,38.6-33.2,45c7.2,6.1,21.8,15.2,21.9,15.3c1.4,0.9,1.9,2.8,1,4.2c-0.9,1.4-2.8,1.9-4.2,1
	c-0.7-0.4-16.1-10.1-23.4-16.5c-4.9-4.3,1.6-14.7,33.2-52.8c4.6-5.5,8.5-10.3,10.6-13c1.4-1.8,3.3-2.9,5.5-3.1
	c6.9-0.6,15.7,7.5,25,16.1c1.7,1.6,3.5,3.2,5.1,4.7c1.8,1.6,2.7,3.4,2.8,5.5c0.2,5.1-4.6,10.1-12.6,18.3c-2.7,2.8-5.8,6-9,9.6
	c-11.7,12.9-17.6,23.6-21.4,30.7c-0.9,1.7-1.8,3.2-2.5,4.5c-1.1,1.8,1.2,7.6,5.8,12.7c0.2-1.1,0.5-2.1,1-3.1
	c4.7-9.6,12-12.7,17.2-12.4c4.5,0.2,8.2,2.8,9.6,6.8c1,2.7,2.3,10-7.4,19.4c-2.7,2.6-6.2,3.6-10,2.9c2.1,3,4.7,6,7.8,8.6
	c-0.4-3.5,0.6-6.8,2.9-9.4c9.5-11.2,17.9-16.3,24.2-14.9c3,0.7,5.3,2.9,6.2,6.1c1.7,6.2-1.4,17.1-12.3,27.3c-1.7,1.6-3.8,2.6-6.1,3
	c2.2,1.7,4.7,3.3,7.2,4.5c-0.4-2.5,0.2-4.9,1.7-7.1c8.5-11.9,15.6-13,19.1-12.6c3.6,0.4,6.4,2.7,7.8,6.2c2,5,0.4,11.4-4,16.7
	c-2.5,3-5.9,4.9-10,5.5c2.7,1.7,5.7,3.2,8.6,4.3c0-2.1,0.8-4.3,2.2-6.4c5.5-8.1,10.6-9.4,13.8-9.1c3.2,0.3,5.9,2.4,7.3,5.6
	c1.8,4.1,1.1,9.2-1.8,13.4c0.1,0,0.2-0.1,0.2-0.1c3.5-1.9,5.6-4.1,5.9-6.2c0.4-2.4-1.7-4.5-1.7-4.6c-1.2-1.2-1.2-3.1,0-4.3
	c1.2-1.2,3.1-1.2,4.3,0c0.3,0.3,7.1,6.7,12.3,2.5c1.5-1.2,2.2-2.5,2.3-4.1c0.2-3.5-2.7-7.7-4.3-9.6c-0.5-0.5-0.7-0.8-0.8-0.9
	c-1-1.3-0.9-3.1,0.3-4.2c1.2-1.1,3.1-1,4.2,0.2c0.1,0.1,0.4,0.4,0.7,0.8c1.3,1.4,4.8,4.5,9,4.9c2.6,0.2,5.1-0.7,7.6-2.8
	c1.9-1.6,2.8-3.4,2.8-5.4c0-4.6-4.5-9.7-6.7-11.7c-0.3-0.2-0.4-0.4-0.5-0.4c-1.2-1.1-1.3-3-0.2-4.2c1.1-1.2,3-1.4,4.2-0.3
	c0,0,0.2,0.2,0.5,0.4c3.1,2.7,11.4,8.5,15.7,5c1.9-1.6,2.8-3.5,2.9-5.9c0.6-14-25.6-39.6-41.2-55c-3.2-3.1-6.3-6.1-8.7-8.7
	c-9.1,6.2-17.1,12.4-23.6,21.4c-7,9.9-19,17.8-27,14c-4.1-2-8.1-7.5-3.8-22.8c3.7-13.3,13.8-23.6,26.4-26.8
	c10.1-2.6,20.3-0.2,28.6,6.5c1.1-0.7,2.2-1.4,3.2-2.1c4.7-3.1,9.5-6.2,14.5-9.8c2.6-1.9,5.3-3.9,7.9-5.8
	c21.8-16,29.5-21.3,33.2-16.6c21.6,27.5,47,61.6,46.1,67.7c-0.2,1-0.7,1.9-1.5,2.4c-0.7,0.4-2.2,1.6-4,3
	c-14.5,11.1-23.3,17-27.9,16.2c-1.3-0.2-2.3-0.9-3-1.9c-2.9-4.2-37.8-53.9-38.1-54.4c-1-1.4-0.6-3.3,0.7-4.2c1.4-1,3.3-0.6,4.2,0.7
	c1.4,2,32.4,46.2,37.6,53.7c2.9-0.6,10.5-5.6,22.7-15c1.1-0.9,2.1-1.6,2.8-2.2c-2.9-7.1-23.8-35.8-43.9-61.5
	c-4,1.1-16.3,10.2-25.5,16.9c-2.6,1.9-5.3,3.9-8,5.8c-5.1,3.7-10,6.9-14.7,10c-0.7,0.4-1.3,0.9-2,1.3c2.3,2.3,5,5,7.8,7.7
	c18.4,18.1,43.7,42.8,43,59.5c-0.2,4.2-1.9,7.7-5.1,10.3c-3.5,2.9-7.7,3-11.6,1.8c0.5,1.5,0.8,3.1,0.8,4.8c0,3.8-1.7,7.3-4.9,10
	c-3.7,3.2-7.8,4.7-12.1,4.3c-1-0.1-1.9-0.3-2.8-0.5c0.3,1.2,0.4,2.4,0.3,3.7c-0.2,3.3-1.8,6.2-4.6,8.5c-4.1,3.3-8.7,3.2-12.7,1.9
	c0,0.2,0,0.4-0.1,0.5c-0.6,4.1-3.6,7.7-9,10.7C212.7,274.1,209.4,274.8,206.1,274.8z M197.6,265.8c4.3,0.8,7.9,0.4,9.3-1.3
	c2.4-3.1,2.4-6.4,1.6-8.2c-0.3-0.7-1-1.8-2.3-1.9c-0.8-0.1-3.9,0.1-8.3,6.5C195.9,263.9,197.1,265.3,197.6,265.8z M175.2,253.5
	C175.2,253.5,175.2,253.5,175.2,253.5c3.8,0.7,9,0.7,12.3-3.3c3.6-4.3,3.9-8.3,3-10.5c-0.4-1-1.2-2.2-2.9-2.4
	c-2.8-0.3-7.8,2.1-13.4,10.1C172.8,249.3,173.7,251.5,175.2,253.5z M153.8,239.6c2.9,1.2,6.2,1.6,8.4-0.5c8.5-8,11.8-17,10.6-21.3
	c-0.4-1.4-1.1-1.7-1.6-1.8c-2.8-0.6-9.3,2.4-18.2,12.9c-1.7,1.9-2,4.3-0.9,7.2C152.4,237.2,153,238.4,153.8,239.6z M133.6,217.7
	c2.9,1.8,7,3.5,9.8,0.8c5-4.8,7.2-9.6,6-12.9c-0.6-1.7-2.2-2.7-4.3-2.8c-3.2-0.2-8,2.1-11.4,9.1C133,213.3,133,215.4,133.6,217.7z
	 M201.3,143.5c-2.2,0-4.4,0.3-6.6,0.8c-10.5,2.7-18.9,11.3-22.1,22.5c-2.8,10-1.5,14.7,0.6,15.7c3.7,1.8,13-3.1,19.4-12.1
	c6.7-9.3,14.9-15.9,23.8-22C211.9,145.2,206.7,143.5,201.3,143.5z"/>
<linearGradient id="SVGID_8_" gradientUnits="userSpaceOnUse" x1="127.7119" y1="192.8797" x2="284.2659" y2="192.8797">
	<stop  offset="0" style="stop-color:#FFFFFF"/>
	<stop  offset="0.9944" style="stop-color:#FFF8F1"/>
</linearGradient>
<path class="st8" d="M204.2,296.2c-9.4,0-19.4-4.6-22.8-10.6c-1.5-2.7-1.6-5.4-0.2-7.7c2.4-4,8.5-5.8,18.7-5.5
	c19.7,0.6,31.4-2.9,34.6-5.1c-1.8-0.9-7-2.7-20.6-3.2c-27.7-1.1-48.1-6.4-51.7-13.4c-1-1.9-0.9-4,0.2-5.8c4.4-6.9,25.2-7.4,41.8-6.7
	c33.7,1.5,45.2-2.7,47.1-4.7c-1-1-5.2-3.7-16.5-5c-9.7-1.1-16.8-6.4-20.6-15.2c-2.8-6.5-3.4-14.5-2.2-22.4c-4.3,0.2-9.3,0.3-13.7,0
	c0.1,0.9,0.1,1.8,0.1,2.7c0.1,19.1-9,32.3-23.3,33.6c-16.2,1.5-31.8-8.6-40.6-26.5c-10.4-21.2-12.1-57.3,17.4-88.8
	c29.9-32,75.7-25.8,103.6-3.8c25.1,19.8,43.3,59.6,12.2,106.5c-1,1.5-3,1.9-4.5,0.9c-1.5-1-1.9-3-0.9-4.5
	c28.6-43.2,13.2-78.8-10.8-97.8c-25.6-20.2-67.5-26-94.8,3.1c-27.3,29.2-25.9,62.1-16.3,81.5c7.6,15.4,20.7,24.2,34.2,22.9
	c12.9-1.2,17.5-14.8,17.4-27.1c0-1.2-0.1-2.3-0.1-3.5c-14.4-2.3-22.7-8.4-25.8-14.2c-2.1-3.9-2.2-8-0.1-11.1
	c2.3-3.6,6.9-5.3,12.7-4.9c10.2,0.9,16.8,12,19,24.3c2.2,0.2,4.5,0.3,6.9,0.3c3.2,0,6.3-0.1,9.1-0.3c1.5-5.1,3.8-9.9,6.8-13.9
	c5.4-7.2,12.3-10.6,19.6-9.7c7.8,1,13,5.8,12.6,11.7c-0.5,7.7-9.9,15.8-33.8,18.1c-1.4,7.1-0.9,14.5,1.5,20.3
	c2.8,6.7,8,10.5,15.4,11.3c14.7,1.7,22.9,6.1,22.4,12c-0.9,11.4-34.3,11.6-54.1,10.7c-24.6-1.1-33.8,1.8-35.7,3.3
	c2.1,2.5,15.2,8.3,45.9,9.6c24.9,1,27.6,6.1,27.5,9.8c-0.3,9.4-25.3,12.1-42,11.6c-9-0.2-12.4,1.4-12.9,2.4
	c-0.2,0.3,0.1,0.9,0.3,1.1c1.7,3,8.7,7.3,17.1,7.3c15.1,0,18.8-3.8,18.8-3.8c1-1.5,3-1.7,4.5-0.7c1.5,1,1.8,3.2,0.7,4.6
	C227.5,290.8,222.8,296.2,204.2,296.2z M237.8,167c-5.5,0-9.6,3.9-12.1,7.3c-2.1,2.7-3.7,5.9-5,9.3c17.9-2.2,25.2-7.8,25.5-11.7
	c0.1-2.3-2.7-4.3-6.9-4.8C238.8,167,238.3,167,237.8,167z M176.9,166.3c-2.6,0-4.6,0.7-5.4,2c-0.7,1.1-0.6,2.7,0.4,4.5
	c2.1,4,8.3,8.4,19,10.5c-2.1-9.5-7.1-16.4-12.7-16.9C177.7,166.3,177.3,166.3,176.9,166.3z"/>
<linearGradient id="SVGID_9_" gradientUnits="userSpaceOnUse" x1="139.6654" y1="192.0408" x2="268.7292" y2="192.0408">
	<stop  offset="0" style="stop-color:#FFFFFF"/>
	<stop  offset="0.9944" style="stop-color:#FFF8F1"/>
</linearGradient>
<path class="st9" d="M191.9,291.7c-29.3,0-43.7-4.1-45.9-27.3c-1.5-15.1-0.9-79.9-0.8-82.6c0-1.4,1.2-2.9,2.6-2.9c0,0,0,0,0,0
	c1.5,0,2.6,1.5,2.6,2.9c0,0.7-0.6,67.1,0.8,81.9c1.7,17.7,10.5,22.7,40.7,22.7c31.6,0,35.2-13.9,35.2-24.3c0-3,0-8.1,0-14.3
	c0-9.4,0.1-21.3,0.1-31.8c0-5,2.4-9.3,6.7-11.6c4.5-2.5,10.2-2.3,14.5,0.5c3.1,2,8.2,7,7.5,18.3c-1,15.5-7.6,19-12.5,21.6
	c-3.1,1.6-4.3,2.4-4.5,5c-0.1,1.1,0.3,1.5,0.7,1.7c1.5,1,5.3,0.8,9.4-1.4c3.2-1.7,13.6-8.5,14.1-25.4c0.4-12.3-2.2-21.2-7.8-26.4
	c-5.5-5.2-12.9-5.7-18.2-5.2c-2.8,0.3-5-0.4-6.8-2c-3-2.8-3.3-7.7-3.2-11.2c0.1-2.9-0.7-5.1-2.5-6.9c-1.9,9.7-16.7,16-36.4,15.4
	c-23.9-0.7-37-5.9-37-14.6c0-8.6,6-13.3,37.5-13.3c10,0,18.1,0.6,24.5,1.9c-3.4-2.1-8.2-4.1-14.8-5.7c-8.1-1.9-15.1-2.2-21.4-2.4
	c-9.8-0.3-17.6-0.6-20.5-8.5c-1.4-3.9-0.1-6.6,1.2-8.1c7.9-9.3,38.3-4.6,47.4-3c5.8,1.1,9.6-1,11.1-3.3c1.3-1.9,1.3-4.3,0-6.2
	c-1.2-1.8-6.5-7.6-24.6-4.6c-26,4.4-43.7,2.5-50-5.3c-2.3-2.8-2.8-6.3-1.4-9.7c2.7-6.6,11.7-11.8,23-13.3c1.4-0.2,2.8,0.8,2.9,2.3
	c0.2,1.4-0.8,2.8-2.3,2.9c-10.7,1.4-17.2,6.2-18.8,10c-0.7,1.7-0.5,3.1,0.6,4.5c3.7,4.7,17.5,8,45,3.4c20.7-3.5,27.8,3.7,29.9,6.9
	c2.4,3.7,2.4,8.3-0.1,12c-3.1,4.7-9.4,6.8-16.4,5.6c-24.7-4.5-39.3-2.5-42.4,1.2c-0.5,0.6-0.9,1.3-0.3,2.9c1.6,4.4,6.3,4.8,15.8,5.1
	c6.2,0.2,13.8,0.5,22.4,2.5c12.8,3.1,21.3,8.2,24.3,14.3c1.9,1,3.4,2.1,4.7,3.4c2.8,2.8,4.1,6.4,4,10.7c-0.1,3.8,0.4,6.2,1.5,7.2
	c0.2,0.2,0.9,0.8,2.7,0.6c6.3-0.6,15.3,0,22.3,6.6c6.7,6.2,9.8,16.5,9.4,30.4c-0.6,19.8-13.1,27.8-17,29.9
	c-5.6,2.9-11.3,3.4-14.7,1.1c-2.2-1.4-3.3-3.7-3.1-6.4c0.3-5.7,4-7.7,7.2-9.4c4.4-2.3,8.9-4.7,9.7-17.3c0.4-6.4-1.4-11.2-5.1-13.5
	c-2.8-1.8-6.4-1.9-9.2-0.3c-1.5,0.8-4,2.8-4,7c0,10.5,0,22.4-0.1,31.8c0,6.2,0,11.3,0,14.3C232.4,281.7,218.8,291.7,191.9,291.7z
	 M189,165.9c-32.2,0-32.2,5-32.2,8c0,4,10,8.6,31.9,9.3c19.2,0.6,30.4-5.5,31.2-11.6c0.1-0.6,0.1-1.2-0.1-1.9
	C213.6,167.1,203.4,165.9,189,165.9z"/>
<linearGradient id="SVGID_10_" gradientUnits="userSpaceOnUse" x1="143.139" y1="192.0408" x2="265.2556" y2="192.0408">
	<stop  offset="0" style="stop-color:#FFFFFF"/>
	<stop  offset="0.9944" style="stop-color:#FFF8F1"/>
</linearGradient>
<path class="st10" d="M162.9,297.7c-0.4,0-0.7-0.1-1.1-0.2c-0.2-0.1-5.6-2-12.1-8.3c-6.5-6.3-7.2-17.2-6.3-40.7
	c0.7-17.3,0.7-36.5,0.7-55c0-42.4,0-79.1,7.3-92c9-15.8,18-15.5,39.8-14.8c5.7,0.2,12.2,0.4,20,0.4c38.2,0,53.8,4.2,53.8,46.7
	c0,4.6,0,10.3,0.1,16.7c0.5,62.5,0,130.2-12.9,143.2c-2.3,2.3-4.6,2.7-6.1,2.7c-2.2,0-5.1,0.1-8.5,0.1c-22.4,0.5-64.2,1.4-77.8-11.9
	c-3.2-3.1-4.8-6.8-4.8-10.9c0-15.6,1.1-55.5,2-90.7c0.7-27.6,1.4-51.5,1.4-58.8c0-5.2,1.4-9.1,4.1-11.8c5.5-5.4,15.2-5.2,29.8-4.8
	c3.8,0.1,8.1,0.2,12.7,0.2l4,0c16.1-0.1,27.7-0.1,35,7.2c4.9,4.9,7.3,12.8,7.3,24.7c0,2.7,0,5.8,0,9.2c0.2,64.7-1.4,106-10.2,112.3
	c-2.9,2.1-8.1,2.9-16.4,4c-1.8,0.2-3.7,0.5-5.7,0.8c2,2.4,3,5.2,3,8.3c0,8.8-7.2,13.4-14.2,13.4s-14.2-4.6-14.2-13.4
	c0-4.7,2.8-7.9,7-10.1c-9.8-2.1-21.9-2.2-27.4-1.9c-1.8,0-3.4-1.3-3.5-3.2c-0.1-1.8,1.3-3.4,3.2-3.5c2.9-0.2,25.1-1.1,38.6,4.9
	c4.1-0.9,8.4-1.5,12.4-2c5.5-0.8,11.8-1.6,13.5-2.8c0.8-0.6,4.7-5.2,6.5-41.6c1.1-22.1,1-48.1,0.9-65.3c0-3.4,0-6.6,0-9.3
	c0-10-1.7-16.3-5.3-19.9c-5.4-5.3-15.8-5.3-30.3-5.3l-4,0c-4.6,0-9-0.1-12.8-0.2c-12.5-0.3-21.5-0.5-25,2.9c-0.9,0.9-2.1,2.6-2.1,7
	c0,7.4-0.6,31.3-1.4,59c-0.9,35.2-2,75.1-2,90.6c0,2.3,0.9,4.3,2.7,6.2c11.6,11.3,53,10.4,72.9,10c3.4-0.1,6.4-0.1,8.6-0.1
	c0.1,0,0.6,0,1.4-0.8c12-12.1,11.3-97.4,10.9-138.4c-0.1-6.5-0.1-12.2-0.1-16.8c0-36.1-9.5-40-47.1-40c-7.9,0-14.4-0.2-20.2-0.4
	c-21.2-0.7-26.8-0.9-33.8,11.4c-6.4,11.4-6.4,50.7-6.4,88.7c0,18.6,0,37.8-0.7,55.3c-0.8,20.6-0.4,31.2,4.2,35.7
	c5.3,5.2,9.6,6.8,9.6,6.8c1.7,0.6,2.6,2.5,2,4.3C165.6,296.8,164.3,297.7,162.9,297.7z M210.6,267.7c-5.7,1.4-10.3,3.4-10.3,6.7
	c0,5.3,4.7,6.7,7.5,6.7c2.8,0,7.5-1.4,7.5-6.7c0-1.8-0.7-3.3-2.2-4.8C212.5,268.9,211.6,268.3,210.6,267.7z"/>
<linearGradient id="SVGID_11_" gradientUnits="userSpaceOnUse" x1="113.7313" y1="192.0408" x2="294.6632" y2="192.0408">
	<stop  offset="0" style="stop-color:#FFFFFF"/>
	<stop  offset="0.9944" style="stop-color:#FFF8F1"/>
</linearGradient>
<path class="st11" d="M288.8,274.6c-4.1,0-11.8-0.8-23.2-5.1c-10.9-4.1-16.7-9.4-19.2-12.3c-13.3,6.1-83.8,35-117.4-14.2
	c-27.6-40.3-14.1-84.2,11.6-109.8c26.1-26.1,60.3-31.1,87.1-12.8c8.9,6.1,14.3,14.4,15.4,23.3c7.5,1.6,20,7.7,24.9,30.6
	c4.2,19.5,0.4,37.7-10.4,50c-8.4,9.5-20.1,14.3-32.2,13.2c-5.8-0.5-10.2-3-13-7.3c-1.8-2.7-2.8-6-3.2-9.4
	c-3.7,7.4-8.3,13.9-13.4,14.9c-2.2,0.5-5.6,0.2-8.9-3.8c-5.2-6.3-5.3-15.7-5.4-23.3c0-3.5-0.1-9.5-1.3-10.2
	c-0.2-0.1-1.3-0.2-3.8,1.1c-9.3,4.8-14.9,28.3-16.3,37c-0.2,1.5-1.7,2.6-3.2,2.5c-1.6-0.2-2.7-1.5-2.6-3.1c0.1-1.2,1.1-18,4.1-37.9
	c-6.5,1.3-11,1-11.1,1c-1.6-0.1-2.8-1.5-2.7-3.1c0.1-1.6,1.5-2.8,3.1-2.7c0.5,0,5.3,0.3,11.6-1.2c2.1-12.7,4.9-26.1,8.8-37.1
	c6.7-19.3,19.2-28.1,27.4-25.6c2.8,0.9,11.4,5.4,5.5,26.6c-7.3,26.1-23.7,36.4-36.5,40.5c-0.5,3.5-1,6.9-1.5,10.2
	c2.8-5.4,6.3-10.1,10.6-12.3c1.5-0.8,6-3.1,9.5-0.9c3.9,2.4,4,8,4.1,15.1c0.1,7,0.2,14.9,4,19.6c1.7,2.1,2.8,1.9,3.2,1.8
	c5.5-1.1,12.6-17.6,16.7-30.6c0.5-1.9,0.9-3.1,1-3.3c0.5-1.5,2.1-2.3,3.6-1.8c1.5,0.5,2.4,2.1,1.9,3.6c-0.2,0.8-0.6,1.9-1,3.4
	c-1.8,7-3.8,19.3,0.5,25.8c1.8,2.8,4.6,4.3,8.6,4.7c10.2,0.9,20.2-3.2,27.3-11.2c9.6-10.9,12.9-27.3,9.1-44.9
	c-4-18.4-13-24-19.1-25.8c-0.1,0.9-0.2,1.8-0.4,2.7c-1.6,8.1-6.5,14.4-12.3,15.7c-4,0.9-7.9-0.8-10.7-4.6c-2.6-3.5-2.7-7.8-0.3-11.6
	c3.2-5.1,10.2-8.5,17.6-8.7c-0.9-5.4-4.1-12.1-12.7-18c-29.6-20.3-61.4-6.1-79.7,12.1c-23.9,23.9-36.6,64.9-10.9,102.4
	C168,289.7,245.2,251.4,246,251c1.4-0.7,3-0.2,3.8,1.1c0,0,4.4,6.9,17.9,11.9c6.7,2.5,11.9,3.7,15.7,4.3c-3.1-2.8-7-6.7-11.4-11.8
	c-10.2-11.8-10.9-19.8-11-20.6c-0.1-1.6,1.2-3,2.8-3.1c1.6-0.1,3,1.2,3.1,2.8c0,0,0.6,6.8,9.5,17.1c9.5,11,16.9,16.3,17,16.4
	c0.9,0.7,1.4,1.8,1.2,3c-0.2,1.1-1.1,2-2.3,2.3C292.2,274.3,291,274.6,288.8,274.6z M192.5,134.8c-5,0-13.6,7.1-18.9,22.1
	c-3.4,9.8-6,21.6-8,33.2c10.8-4.2,23.7-13.8,29.8-35.7c3.3-12,1.6-18.4-1.6-19.4C193.4,134.9,193,134.8,192.5,134.8z M237.3,149.1
	c-5.9,0.1-10.9,2.8-12.9,6c-1.1,1.8-1.1,3.4,0.1,5c2.1,2.9,4,2.5,4.7,2.4c2.9-0.6,6.6-4.7,7.9-11.1
	C237.2,150.7,237.3,150,237.3,149.1z"/>
</svg>
