<?xml version="1.0" encoding="utf-8"?>
<!-- Generator: Adobe Illustrator 19.1.0, SVG Export Plug-In . SVG Version: 6.00 Build 0)  -->
<svg version="1.1" id="Layer_1" xmlns="http://www.w3.org/2000/svg" xmlns:xlink="http://www.w3.org/1999/xlink" x="0px" y="0px"
	 viewBox="0 0 400 400" style="enable-background:new 0 0 400 400;" xml:space="preserve">
<style type="text/css">
	.st0{display:none;}
	.st1{display:inline;fill:none;stroke:url(#SVGID_1_);stroke-width:5;stroke-miterlimit:10;}
	.st2{display:inline;fill:none;stroke:url(#SVGID_2_);stroke-miterlimit:10;}
	.st3{display:inline;fill:none;stroke:url(#SVGID_3_);stroke-miterlimit:10;}
	.st4{display:none;fill:url(#SVGID_4_);}
	.st5{display:none;fill:url(#SVGID_5_);}
	.st6{display:none;fill:url(#SVGID_6_);}
	.st7{display:none;fill:url(#SVGID_7_);}
	.st8{display:none;fill:url(#SVGID_8_);}
	.st9{display:none;fill:url(#SVGID_9_);}
	.st10{fill:url(#SVGID_10_);}
	.st11{display:none;fill:url(#SVGID_11_);}
</style>
<g class="st0">
	<linearGradient id="SVGID_1_" gradientUnits="userSpaceOnUse" x1="60.4162" y1="192.0408" x2="349.77" y2="192.0408">
		<stop  offset="0" style="stop-color:#001C2A"/>
		<stop  offset="0.1592" style="stop-color:#002133"/>
		<stop  offset="0.4238" style="stop-color:#00304D"/>
		<stop  offset="0.7592" style="stop-color:#004876"/>
		<stop  offset="0.9944" style="stop-color:#005B97"/>
	</linearGradient>
	<circle class="st1" cx="205.1" cy="192" r="142.2"/>
	<linearGradient id="SVGID_2_" gradientUnits="userSpaceOnUse" x1="56.8839" y1="192.0408" x2="353.3023" y2="192.0408">
		<stop  offset="0" style="stop-color:#001C2A"/>
		<stop  offset="0.1592" style="stop-color:#002133"/>
		<stop  offset="0.4238" style="stop-color:#00304D"/>
		<stop  offset="0.7592" style="stop-color:#004876"/>
		<stop  offset="0.9944" style="stop-color:#005B97"/>
	</linearGradient>
	<circle class="st2" cx="205.1" cy="192" r="147.7"/>
	<linearGradient id="SVGID_3_" gradientUnits="userSpaceOnUse" x1="69.5404" y1="192.0408" x2="340.6458" y2="192.0408">
		<stop  offset="0" style="stop-color:#001C2A"/>
		<stop  offset="0.1592" style="stop-color:#002133"/>
		<stop  offset="0.4238" style="stop-color:#00304D"/>
		<stop  offset="0.7592" style="stop-color:#004876"/>
		<stop  offset="0.9944" style="stop-color:#005B97"/>
	</linearGradient>
	<circle class="st3" cx="205.1" cy="192" r="135.1"/>
</g>
<linearGradient id="SVGID_4_" gradientUnits="userSpaceOnUse" x1="5.7781" y1="195.3175" x2="395" y2="195.3175">
	<stop  offset="0" style="stop-color:#001C2A"/>
	<stop  offset="0.1592" style="stop-color:#002133"/>
	<stop  offset="0.4238" style="stop-color:#00304D"/>
	<stop  offset="0.7592" style="stop-color:#004876"/>
	<stop  offset="0.9944" style="stop-color:#005B97"/>
</linearGradient>
<path class="st4" d="M5.8,253c0-3.5,0.1-7.4,0.3-11.9c0.1-2.5,0.2-5.3,0.3-8.2c0.3-9.3,2.5-15.1,7.1-18.4c6.3-4.5,14.3-2.1,21.4,0.1
	c5.7,1.7,11.7,3.6,14.7,1.4c1.9-1.4,5.1-6.1,5.1-21.9c0-13-2.6-17.8-4.8-19.5c-3.2-2.5-9.5-0.9-15.6,0.6c-7.4,1.9-15,3.8-20.8-0.7
	c-3.9-3-5.8-8.1-5.8-15.7l0-5.9c0-17.8-0.1-28.6,6.6-35.3c4.8-4.8,12.1-6.7,25.3-6.7c5.8,0,12.1,0.8,17.6,1.6
	c4.4,0.6,10.7,1.4,13.7,1.1c-3.6-12-8.8-29.8-0.3-41.1c4.7-6.3,12.7-9.5,23.8-9.5c19,0,27.7,7.9,31.7,14.5c5.8,9.7,4.4,21.5,0.5,29
	c-2.1,4-2.5,6.1-2.6,6.9c2.4,0.8,9.6-0.4,13.6-1c2.9-0.4,5.9-0.9,8.5-1.1l2.8-0.2c13-1.1,21.6-1.8,27.4,3.5
	c5.2,4.8,5.9,12.7,5.9,20.5c0,15.8,0,33.7-10.3,40.6c-5.1,3.4-11.8,3.5-19.8,0.1c-5.6-2.3-17.2-7.1-23.4-3
	c-4.3,2.8-6.5,10.2-6.5,21.3c0,7.3,1.3,16.8,7.6,20.3c6.2,3.4,15.9,0.6,22.7-3.7c7.8-4.9,13.8-3.6,17.4-1.6c10,5.5,15,23,15,52.1
	c0,1.7,2.8,3.1,4,3.7c10.3,4.6,30.1,2.8,37-3.4c2.1-1.9,2.6-3.7,1.8-6.3c-4-12.6-3.5-22.7,1.7-29.8c4.8-6.6,13-10.1,24.3-10.3
	c13.9-0.2,24.4,3.5,30.3,10.9c5.4,6.7,6.7,15.9,4,27.3c-1.9,7.9-1.2,10.7-0.7,11.5c1.9,2.4,12.6,2.9,25,2.9h1.1
	c7.5,0,12.5-1.7,15-4.2c3.5-3.6,3.3-11.6,3-21.3c-0.1-2.7-0.2-5.6-0.2-8.6l0-1.5c0-8.1-0.2-19.2,6.6-23.6c2.3-1.5,6.1-2.8,11.7-0.3
	c0.7,0.3,1.6,0.7,2.5,1.2c5.9,2.8,18.2,8.5,24.8,4.2c4.6-2.9,7-10.8,7-22.9c0-8.1-1.5-18.5-8.5-22.4c-7.2-4-18-0.3-23.2,3
	c-6.4,4-11.2,2.5-13.6,1.2c-9-4.9-9.1-19.9-9.1-20.6c0-4.8,0.2-9.3,0.5-13.3c0.5-9.4,0.9-16.8-2.3-20.2c-2.6-2.8-8.7-4.2-18.1-4.2
	c-7.3,0-24.5,0-26.7,3.2c-0.3,0.4-1,2.4,2,10.2c4.4,11.3,3.9,22.2-1.3,29.9c-3.7,5.4-11.5,11.8-27.7,11.8c-13.2,0-22.1-3.1-27.2-9.4
	c-7-8.6-5.6-21.3-3.3-32.6c1.1-5.6-0.6-7.2-1.2-7.8c-4.7-4.3-19.3-2.7-28.2-0.2c-3,0.8-6.1-0.9-6.9-3.9c-0.9-3,0.9-6.1,3.8-6.9
	c2.8-0.8,27.7-7.5,38.9,2.8c3.2,3,6.6,8.6,4.6,18.3c-2.5,12-2.1,19.4,1,23.2c2.9,3.5,9.1,5.3,18.5,5.3c6.3,0,14.5-1.2,18.4-6.9
	c3.1-4.5,3.2-11.8,0.2-19.5c-2.7-6.9-4.9-14.7-0.9-20.7c4.7-6.9,14.9-8.1,36-8.1c13.1,0,21.2,2.4,26.3,7.7c6.5,6.9,6,16.9,5.3,28.5
	c-0.2,4-0.4,8.2-0.4,12.7c0,5.3,2.2,10.4,3.3,10.7c0.1,0,0.8,0,2.1-0.9c6.5-4.1,22.1-10.2,34.6-3.3c9.5,5.2,14.3,16.1,14.3,32.2
	c0,16.6-4,27.1-12.2,32.4c-11.9,7.5-27.3,0.3-35.6-3.5c-0.9-0.4-1.6-0.8-2.3-1.1c-0.5-0.2-0.9-0.3-1.2-0.4c-1.5,2.3-1.4,11-1.4,13.9
	l0,1.5c0,2.8,0.1,5.6,0.2,8.2c0.4,11.9,0.7,22.7-6.1,29.7c-4.8,4.9-12.1,7.7-23,7.7h-1.1c-18.4,0-28.5-0.4-33.8-7.1
	c-4.3-5.5-3.2-13.4-1.4-20.8c1.9-7.8,1.3-13.9-1.8-17.7c-4.6-5.7-14.2-6.9-21.4-6.7c-7.6,0.1-12.8,2-15.4,5.6
	c-3.7,5.1-2.1,13.6-0.1,19.8c2.2,6.8,0.4,13.2-5,18.1c-11.3,10.1-36.1,11.1-49.1,5.3c-9.2-4.1-10.6-10.5-10.6-13.9
	c0-27.4-5-39.9-9.2-42.3c-0.5-0.3-2.1-1.2-6,1.3c-9.3,5.9-23.2,10-34.1,4c-6.1-3.4-13.4-11.3-13.4-30.1c0-15.4,3.8-25.4,11.5-30.6
	c11.2-7.5,26.6-1.1,34,1.9c3,1.2,7,2.4,9.2,0.9c5.3-3.5,5.3-20.2,5.3-31.2c0-6.8-0.8-10.9-2.3-12.3c-2.2-2-9.5-1.4-18.8-0.6
	l-2.8,0.2c-2.3,0.2-4.9,0.6-7.7,1c-9.8,1.5-19.9,3.1-24.7-3.5c-4.1-5.7-0.9-13.4,1.9-18.7c2.4-4.5,3.4-12.1-0.2-18
	c-3.6-5.9-11.2-9-22-9c-7.3,0-12.3,1.7-14.8,5c-5.2,7-0.7,21.8,2.2,31.7c1.5,5.1,0,8.3-1.5,10.1c-4.5,5.3-13.3,4.1-24.5,2.6
	c-5.4-0.7-11.1-1.5-16.1-1.5c-9.6,0-14.9,1.1-17.3,3.4c-3.5,3.5-3.4,13-3.4,27.4l0,5.9c0,5.5,1.3,6.7,1.4,6.8
	c1.5,1.1,7.3-0.3,11.1-1.3c7.9-2,17.7-4.5,25.3,1.4c6.2,4.8,9.1,13.9,9.1,28.4c0,16.2-3,26.1-9.6,30.9c-7.5,5.6-17,2.7-24.6,0.4
	c-4.4-1.3-9.9-3-11.6-1.7c-0.5,0.4-2.2,2.1-2.4,9.6c-0.1,3-0.2,5.7-0.3,8.3c-0.5,12.5-0.8,20.7,1.9,23.4c2.6,2.7,11.4,3.3,23.7,3.3
	c29.8,0,36,0,38.9,5.5c2.2,4.2-0.3,8-2.6,11.3c-1.6,2.4-3.6,5.4-5,9.3c-2,5.4-1.7,10,0.9,13.7c3.8,5.4,12.3,8.5,23.3,8.5
	c10.8,0,17.9-1.9,20.4-5.6c2.2-3.1,1.8-8.6-1.3-17.2c-2.7-7.4-4.6-15.1-0.3-21c5.5-7.6,17.8-8.1,44.7-7.6c3.1,0.1,5.5,2.7,5.5,5.7
	c-0.1,3.1-2.6,5.6-5.7,5.5c-13-0.3-32.7-0.7-35.3,2.9c-0.4,0.6-1.1,2.7,1.8,10.6c3,8.4,5.8,19.2-0.1,27.5
	c-4.9,7-14.6,10.3-29.6,10.3c-14.7,0-26.5-4.8-32.4-13.3c-3.3-4.7-6.3-12.6-2.2-23.9c1.6-4.5,3.8-8,5.5-10.6
	c-5.8-0.4-16.1-0.4-26.2-0.4c-17.1,0-26.3-1-31.8-6.7C6.8,268.2,5.8,262.2,5.8,253z"/>
<linearGradient id="SVGID_5_" gradientUnits="userSpaceOnUse" x1="97.8493" y1="199.2925" x2="314.1285" y2="199.2925">
	<stop  offset="0" style="stop-color:#001C2A"/>
	<stop  offset="0.1592" style="stop-color:#002133"/>
	<stop  offset="0.4238" style="stop-color:#00304D"/>
	<stop  offset="0.7592" style="stop-color:#004876"/>
	<stop  offset="0.9944" style="stop-color:#005B97"/>
</linearGradient>
<path class="st5" d="M209.6,395.6c-58.2,0-92.4-14.3-101.9-42.4c-16.6-49.6,53-127.1,93.9-157.6c37.3-27.8,114.2-103.5,99.7-147.3
	c-7.5-22.6-39.6-34.1-95.4-34.1c-54.9,0-86.8,11.4-94.7,34c-15.1,42.9,56.7,114,67.4,122.6c5.9,4.7,9.1,4.9,9.6,4.7
	c0.4-0.7,0.1-6.2-6.6-13.2c-1.6-1.6-3.5-3.5-5.7-5.6c-12-11.5-28.5-27.4-22.9-41.2c4.6-11.3,22.3-16.4,55.7-16.1
	c28.9,0.3,43.9,5.8,47.2,17.4c5.7,19.7-30.7,44.6-38,49.4c-2.6,1.7-6.1,1-7.7-1.6c-1.7-2.6-1-6.1,1.6-7.7
	c14.9-9.7,35.9-28.2,33.4-36.9c-0.6-2.1-5.1-9-36.6-9.3c-38.2-0.4-44.3,6.9-45.2,9.1c-2.8,6.8,12.8,21.7,20.3,28.9
	c2.3,2.2,4.4,4.2,6,5.9c9.7,10.1,12.5,22.2,6.6,28.6c-2,2.2-9.7,8.4-24.7-3.6c-0.9-0.7-90.1-80.4-71-135C110.2,17,145.6,3,205.9,3
	c61.2,0,96.8,14.1,106,41.8c16.6,50.1-62.6,129.3-103.6,159.8c-37.5,27.9-104.6,101.4-90,145c7.8,23.4,39.3,35.1,93.4,34.8
	c51.1-0.3,81.8-13.6,88.9-38.5c10.6-37.1-30.9-92.5-63.1-112.8c-10.4-6.6-19-8.9-22.7-6.1c-0.9,1.7-1.7,7.4-0.7,24.5
	c0.9,15.1,22,29.2,40.6,41.7c9.8,6.6,19,12.8,25.2,19c9.6,9.6,12.7,20.9,8.5,30.9c-7.4,18-36.1,28.3-78.7,28.3
	c-46.1,0-75.2-9.4-81.8-26.5c-2.8-7-2.9-18.3,12-32.1c24.5-22.7,48.7-40.7,48.9-40.9c2.5-1.8,6-1.3,7.8,1.1c1.8,2.5,1.3,6-1.1,7.8
	c-0.2,0.2-23.9,17.9-48,40.1c-5.7,5.2-11.9,12.9-9.2,19.8c3.7,9.4,24.3,19.4,71.4,19.4c43.9,0,64.1-11,68.4-21.3
	c3.2-7.8-2.4-15.1-6.1-18.7c-5.4-5.4-14.2-11.3-23.6-17.6c-20.8-13.9-44.3-29.7-45.5-50.3c-1.1-18.2-0.7-29,4.3-33.3
	c5.5-4.8,16.2-7.9,36.3,4.9c35.8,22.7,80.1,82.8,67.9,125.4c-6,21-28.2,46.2-99.6,46.6C211.1,395.6,210.3,395.6,209.6,395.6z"/>
<linearGradient id="SVGID_6_" gradientUnits="userSpaceOnUse" x1="6.6034" y1="200" x2="393.3966" y2="200">
	<stop  offset="0" style="stop-color:#001C2A"/>
	<stop  offset="0.1592" style="stop-color:#002133"/>
	<stop  offset="0.4238" style="stop-color:#00304D"/>
	<stop  offset="0.7592" style="stop-color:#004876"/>
	<stop  offset="0.9944" style="stop-color:#005B97"/>
</linearGradient>
<path class="st6" d="M213.4,396.3c-16.6,0-30.2-4-40-11.9c-9.9-8-15.4-19.8-16.1-34.1c-0.4-8.4-2.9-13.7-7.5-16
	c-7.3-3.5-20.3,0-32.5,8.8c-35.6,25.7-66.7-14.3-76.9-27.4C23.2,293.6,58,212.5,105.7,163.5c47.3-48.5,96.6-58.1,138.9-26.9
	c26.2,19.4,38.3,44.6,33.9,71.1c-4.6,28-28.1,54.1-57,63.3c-24.7,7.9-49,2.3-66.6-15.5c-19.4-19.5-26-42.2-18.7-63.9
	c7.6-22.8,29.5-40.4,54.4-44c21.9-3.1,41.8,5.6,54.6,24c2.2,3.1,1.4,7.4-1.7,9.6c-3.1,2.2-7.4,1.4-9.6-1.7
	c-13.3-19.1-31.6-19.6-41.3-18.2c-19.6,2.8-37.4,17.1-43.3,34.7c-3.9,11.7-4.4,29.8,15.4,49.8c18.9,19.1,41.1,15.7,52.6,12
	c24.2-7.7,43.8-29.3,47.6-52.4c2.5-14.9-0.5-37.1-28.5-57.8c-46.1-34.1-91.2-5-120.8,25.4c-49.4,50.7-73.7,122-64.3,134.1
	c29.2,37.6,45.7,33.6,58,24.7c16.6-12,34.5-15.9,46.5-10.1c6.5,3.2,14.5,10.5,15.3,27.8c0.5,10.4,4.2,18.5,11,24
	c10.4,8.4,27.7,10.9,50,7.1c19.1-3.2,31.7-9.1,37.6-17.4c4.1-5.8,5.2-13.4,3.4-23.2c-2.5-13.6,2-26.6,12-34.6
	c9.9-7.9,23.4-9.4,36.1-4c13.9,5.9,27.6,1.3,49.3-40.7c8.4-16.2,10.8-27.6,7.8-36.1c-3-8.3-11.8-15.2-28.6-22.4
	c-13.1-5.6-20-12.9-20.8-21.8c-1.2-15.3,16.7-28.7,32.5-38.7c6.5-4.1,7.9-8,8.4-10.5c2.1-11.1-10.2-29.5-22.5-46.1
	c-22.3-30.1-32.1-28.8-56.7-17c-15.4,7.4-36.8,14.3-51.2,5.7c-5.3-3.2-11.7-9.9-12.2-23.8c-0.8-22.7-1.3-34.1-51-32.8
	c-23.3,0.6-37.4,4.2-43.1,11c-3.7,4.4-4.5,11-2.6,22.6c2.6,16.3-3.6,33.2-15.7,43c-11.5,9.3-26.6,11-42.5,4.9
	c-22.2-8.6-27-7-44.1,33.4c-8.7,20.6-10.2,36.5-4.3,46c5.6,9.1,16.8,10,16.9,10c3.8,0.2,6.7,3.5,6.5,7.3c-0.2,3.8-3.5,6.7-7.3,6.5
	c-0.7,0-18.3-1.2-27.8-16.5C3.7,172,4.9,152.2,15.5,127c16.7-39.6,27-54.3,61.8-40.9c11.3,4.4,21.2,3.4,28.8-2.7
	c8.2-6.7,12.6-18.8,10.8-30.1c-1.8-11.1-2.4-23.8,5.7-33.5c8.6-10.3,25.1-15.2,53.4-16C235,2.4,240.1,21,241.1,49.8
	c0.3,9.4,4.2,11.7,5.5,12.5c6.9,4.1,21.1,1.8,38.1-6.3c30.2-14.4,47.1-14.7,73.8,21.3c17.5,23.7,27.8,41.5,25,56.8
	c-1.5,7.8-6.4,14.4-14.6,19.6c-23.3,14.8-26.3,22.6-26.1,25.9c0.3,3.3,4.8,7,12.4,10.2c20.6,8.7,31.7,18.1,36.2,30.4
	c4.5,12.4,1.8,27.4-8.5,47.2c-15.8,30.6-36.2,60.1-67,47c-8-3.4-16.1-2.7-22.1,2.1c-6,4.8-8.6,12.7-7.1,21.3
	c2.5,13.6,0.6,24.6-5.7,33.6c-8.1,11.6-23.4,19.1-46.6,23.1C227,395.7,220,396.3,213.4,396.3z"/>
<linearGradient id="SVGID_7_" gradientUnits="userSpaceOnUse" x1="5.1862" y1="191.8898" x2="395" y2="191.8898">
	<stop  offset="0" style="stop-color:#001C2A"/>
	<stop  offset="0.1592" style="stop-color:#002133"/>
	<stop  offset="0.4238" style="stop-color:#00304D"/>
	<stop  offset="0.7592" style="stop-color:#004876"/>
	<stop  offset="0.9944" style="stop-color:#005B97"/>
</linearGradient>
<path class="st7" d="M201.6,324.7c-6.7,0-13.3-1.8-18-5.3c-10.5-2.3-21.5-7.6-29.6-13.6c-2.8-2.1-5.2-4.2-7.2-6.4
	c-13.6-3.5-27.2-12.7-35.2-23.3c-3.1-1.5-6.3-3.4-9.5-5.7c-10.8-8-20.4-19.7-24.7-30.9c-0.5-0.4-1-0.7-1.5-1.1
	c-11.8-9.3-24.7-28.1-18.2-39.1c1.2-2,2.4-4.3,3.9-6.9c6.4-11.7,16-29.4,35.6-51c5.3-5.9,10.3-11,14.6-15.5
	c9.5-9.8,17.6-18.3,17.5-22.3c0-0.3,0-0.9-1.2-1.9c-2.7-2.4-5.5-5-8.4-7.7C108.9,83.6,94,69.8,87.3,70.4c-0.7,0.1-1.2,0.3-1.9,1.1
	c-3.4,4.5-9.8,12.2-17.2,21.2c-16.8,20.3-51.3,61.9-53.2,72c11.5,9.7,34.9,24.4,35.1,24.6c2.3,1.4,3,4.4,1.5,6.7
	c-1.4,2.3-4.4,3-6.7,1.5c-1-0.7-25.8-16.2-37.4-26.4c-7.9-6.9,2.6-23.5,53.2-84.6c7.3-8.8,13.7-16.5,16.9-20.8
	c2.2-2.9,5.2-4.7,8.8-5c11-1,25.1,12.1,40,25.9c2.8,2.6,5.6,5.2,8.2,7.6c2.8,2.5,4.3,5.5,4.4,8.8c0.3,8.1-7.4,16.1-20.2,29.4
	c-4.3,4.5-9.2,9.6-14.4,15.3c-18.8,20.7-28.1,37.8-34.3,49.2c-1.5,2.8-2.8,5.2-4.1,7.3c-1.7,2.9,1.9,12.1,9.3,20.4
	c0.3-1.8,0.8-3.4,1.6-5c7.6-15.3,19.1-20.4,27.5-19.9c7.2,0.4,13.1,4.5,15.5,10.8c1.6,4.3,3.7,16-11.9,31.1
	c-4.3,4.2-9.9,5.7-16.1,4.7c3.3,4.8,7.6,9.6,12.5,13.7c-0.6-5.6,1-10.8,4.6-15.1c15.2-17.9,28.6-26.1,38.7-23.9
	c4.9,1.1,8.5,4.7,9.9,9.8c2.8,9.9-2.3,27.3-19.6,43.8c-2.7,2.6-6,4.2-9.7,4.7c3.5,2.8,7.5,5.3,11.6,7.2c-0.6-4,0.3-7.9,2.8-11.4
	c13.6-19.1,25-20.8,30.6-20.1c5.7,0.7,10.3,4.3,12.5,9.9c3.2,8,0.7,18.3-6.4,26.7c-4,4.8-9.5,7.8-16,8.9c4.3,2.8,9.1,5.1,13.7,6.8
	c0-3.3,1.2-6.8,3.6-10.3c8.9-12.9,17-15,22.2-14.5c5.1,0.5,9.4,3.8,11.6,8.9c2.8,6.6,1.7,14.7-2.8,21.4c0.1-0.1,0.2-0.1,0.4-0.2
	c5.7-3.1,8.9-6.5,9.4-9.9c0.6-3.9-2.7-7.3-2.7-7.3c-1.9-1.9-1.9-5,0-6.8c1.9-1.9,4.9-1.9,6.8-0.1c0.5,0.4,11.4,10.8,19.8,4
	c2.4-1.9,3.5-4,3.7-6.6c0.3-5.6-4.3-12.4-6.9-15.4c-0.7-0.8-1.1-1.3-1.2-1.4c-1.6-2-1.4-5,0.5-6.7c1.9-1.7,4.9-1.6,6.7,0.3
	c0.2,0.2,0.6,0.6,1.2,1.3c2.1,2.2,7.7,7.2,14.4,7.8c4.2,0.4,8.2-1.1,12.2-4.6c3-2.6,4.5-5.4,4.5-8.7c0-7.3-7.3-15.5-10.8-18.8
	c-0.4-0.4-0.7-0.6-0.8-0.7c-1.9-1.8-2.1-4.8-0.3-6.8c1.8-2,4.8-2.2,6.8-0.5c0.1,0.1,0.3,0.3,0.8,0.7c5,4.4,18.3,13.6,25.1,7.9
	c3.1-2.5,4.5-5.5,4.7-9.5c0.9-22.5-40.9-63.5-65.9-88c-5.1-5-10-9.8-14-13.9c-14.6,9.9-27.5,19.8-37.8,34.3
	c-11.3,15.8-30.5,28.5-43.2,22.4c-6.6-3.2-13-12-6.2-36.5c6-21.3,22.2-37.8,42.3-42.9c16.2-4.1,32.5-0.3,45.8,10.4
	c1.7-1.1,3.5-2.3,5.2-3.4c7.5-4.9,15.2-10,23.2-15.7c4.2-3.1,8.5-6.2,12.7-9.3c34.9-25.6,47.3-34.1,53.2-26.6
	c34.5,44.1,75.3,98.7,73.8,108.4c-0.3,1.6-1.1,3-2.4,3.9c-1.1,0.7-3.5,2.6-6.3,4.8c-23.2,17.8-37.3,27.2-44.7,26
	c-2-0.3-3.7-1.4-4.8-3c-4.6-6.8-60.5-86.4-61-87.2c-1.5-2.2-1-5.2,1.2-6.8c2.2-1.5,5.2-1,6.8,1.2c2.2,3.1,51.9,74,60.3,86.1
	c4.7-1,16.9-9,36.4-24c1.8-1.4,3.3-2.6,4.5-3.5c-4.6-11.3-38.1-57.4-70.3-98.6c-6.3,1.8-26.1,16.3-40.8,27.1
	c-4.2,3.1-8.5,6.2-12.8,9.3c-8.1,5.9-16,11-23.5,16c-1.1,0.7-2.2,1.4-3.2,2.1c3.6,3.7,8,7.9,12.5,12.4c29.5,28.9,70,68.6,68.9,95.4
	c-0.3,6.7-3.1,12.3-8.2,16.6c-5.7,4.7-12.4,4.7-18.6,2.9c0.8,2.4,1.3,5,1.3,7.6c0,6.1-2.7,11.6-7.8,16.1c-6,5.2-12.5,7.5-19.4,6.9
	c-1.6-0.1-3.1-0.4-4.5-0.8c0.4,1.9,0.6,3.9,0.5,5.9c-0.3,5.3-2.9,10-7.3,13.5c-6.6,5.3-14,5.2-20.3,3c0,0.3-0.1,0.6-0.1,0.9
	c-0.9,6.6-5.8,12.4-14.4,17.1C212.3,323.5,206.9,324.7,201.6,324.7z M188.1,310.4c7,1.2,12.7,0.7,14.9-2.1c3.9-5,3.9-10.2,2.6-13.1
	c-0.5-1.1-1.5-2.9-3.6-3.1c-1.4-0.1-6.3,0.2-13.2,10.4C185.4,307.2,187.3,309.5,188.1,310.4z M152.1,290.6
	C152.2,290.6,152.2,290.6,152.1,290.6c6.1,1.1,14.4,1.1,19.7-5.3c5.8-6.8,6.2-13.4,4.8-16.9c-0.6-1.5-1.9-3.5-4.6-3.8
	c-4.5-0.5-12.5,3.4-21.5,16.1C148.4,283.8,149.8,287.4,152.1,290.6z M117.9,268.2c4.7,1.8,9.9,2.6,13.4-0.8
	c13.6-12.9,18.9-27.2,17-34.1c-0.6-2.2-1.7-2.8-2.6-3c-4.5-1-14.8,3.8-29.2,20.7c-2.7,3.1-3.1,6.9-1.5,11.5
	C115.7,264.5,116.7,266.4,117.9,268.2z M85.6,233.2c4.6,2.9,11.2,5.6,15.7,1.2c8-7.7,11.5-15.4,9.6-20.7c-1-2.7-3.6-4.4-6.8-4.6
	c-5.2-0.3-12.8,3.4-18.3,14.5C84.6,226.2,84.6,229.5,85.6,233.2z M194.1,114.4c-3.5,0-7,0.4-10.6,1.4c-16.8,4.3-30.3,18.1-35.3,36.1
	c-4.5,16.1-2.4,23.5,1,25.2c6,2.9,20.8-5,31.1-19.3c10.7-15,23.9-25.5,38.2-35.3C210.9,117.1,202.7,114.4,194.1,114.4z"/>
<linearGradient id="SVGID_8_" gradientUnits="userSpaceOnUse" x1="57.9109" y1="200.4536" x2="354.0669" y2="200.4536">
	<stop  offset="0" style="stop-color:#001C2A"/>
	<stop  offset="0.1592" style="stop-color:#002133"/>
	<stop  offset="0.4238" style="stop-color:#00304D"/>
	<stop  offset="0.7592" style="stop-color:#004876"/>
	<stop  offset="0.9944" style="stop-color:#005B97"/>
</linearGradient>
<path class="st8" d="M202.7,395.9c-17.8,0-36.8-8.8-43.1-20c-2.8-5-3-10.2-0.3-14.5c4.6-7.6,16.1-11,35.4-10.5
	c37.2,1,59.4-5.6,65.5-9.6c-3.4-1.7-13.2-5-38.9-6.1c-52.5-2.1-90.9-12.1-97.8-25.4c-1.9-3.6-1.7-7.7,0.4-11
	c8.3-13,47.6-14.1,79.2-12.6c63.7,2.9,85.5-5.1,89.1-8.9c-1.8-2-9.9-7-31.2-9.5c-18.4-2.2-31.9-12.1-39-28.8
	c-5.3-12.3-6.5-27.5-4.2-42.3c-8.2,0.4-17.7,0.5-25.9-0.1c0.1,1.7,0.1,3.4,0.2,5.1c0.2,36.1-17.1,61-44.1,63.6
	c-30.7,2.9-60.2-16.3-76.9-50.2c-19.8-40.2-23-108.3,33-168.1c56.6-60.5,143.2-48.8,196-7.1c47.4,37.5,81.9,112.7,23.1,201.5
	c-1.9,2.8-5.7,3.6-8.6,1.7c-2.8-1.9-3.6-5.7-1.7-8.6c54.1-81.7,24.9-149.1-20.5-185c-48.5-38.3-127.8-49.2-179.3,5.8
	C61.3,110.5,64,172.9,82,209.5c14.4,29.2,39.1,45.8,64.6,43.4c24.5-2.3,33.1-28,32.9-51.3c0-2.2-0.1-4.4-0.3-6.5
	c-27.2-4.3-42.9-15.9-48.8-26.8c-4-7.4-4.1-15.1-0.2-21.1c4.4-6.7,13.1-10.1,24-9.2c19.4,1.6,31.7,22.6,35.9,46
	c4.1,0.3,8.4,0.5,13,0.5c6.1,0,11.8-0.2,17.2-0.5c2.8-9.6,7.2-18.7,12.9-26.3c10.2-13.6,23.4-20.1,37-18.4
	c14.8,1.8,24.6,10.9,23.9,22.2c-0.9,14.5-18.6,29.8-64,34.2c-2.6,13.5-1.8,27.5,2.9,38.4c5.4,12.6,15.2,19.8,29.1,21.4
	c27.8,3.3,43.2,11.5,42.3,22.6c-1.8,21.6-64.9,22-102.3,20.3c-46.6-2.1-63.9,3.5-67.6,6.3c4.1,4.7,28.8,15.7,86.9,18.1
	c47.2,1.9,52.3,11.5,52,18.4c-0.6,17.7-47.9,22.8-79.5,21.9c-17-0.4-23.4,2.7-24.5,4.5c-0.3,0.5,0.3,1.6,0.5,2.1
	c3.2,5.6,16.5,13.7,32.4,13.7c28.6,0,35.5-7.1,35.6-7.2c2-2.8,5.7-3.3,8.5-1.3c2.8,2,3.3,6,1.4,8.8
	C246.7,385.8,237.8,395.9,202.7,395.9z M266.2,151.5c-10.3,0-18.1,7.3-22.9,13.8c-3.9,5.2-7,11.2-9.4,17.6
	c33.8-4.1,47.7-14.8,48.1-22.1c0.3-4.4-5.1-8.2-13.1-9.2C268,151.5,267.1,151.5,266.2,151.5z M150.9,150.2c-4.9,0-8.6,1.3-10.2,3.7
	c-1.3,2.1-1.1,5.1,0.7,8.4c4,7.5,15.6,15.9,36,19.9c-4.1-17.9-13.4-31-24.1-31.9C152.5,150.3,151.7,150.2,150.9,150.2z"/>
<linearGradient id="SVGID_9_" gradientUnits="userSpaceOnUse" x1="78.3974" y1="200.2925" x2="329.9972" y2="200.2925">
	<stop  offset="0" style="stop-color:#001C2A"/>
	<stop  offset="0.1592" style="stop-color:#002133"/>
	<stop  offset="0.4238" style="stop-color:#00304D"/>
	<stop  offset="0.7592" style="stop-color:#004876"/>
	<stop  offset="0.9944" style="stop-color:#005B97"/>
</linearGradient>
<path class="st9" d="M180.3,394.6c-57.1,0-85.1-8-89.5-53.3c-2.9-29.5-1.7-155.7-1.6-161.1c0-2.8,2.3-5.6,5.1-5.6c0,0,0,0,0.1,0
	c2.8,0,5.1,2.9,5.1,5.7c0,1.3-1.2,130.8,1.6,159.7c3.3,34.6,20.4,44.2,79.3,44.2c61.6,0,68.7-27,68.7-47.4c0-5.8,0-15.9,0.1-28
	c0.1-18.4,0.1-41.5,0.1-62c0-9.8,4.8-18,13.1-22.6c8.7-4.8,19.8-4.4,28.3,1c6.1,3.8,16.1,13.6,14.7,35.7
	c-1.9,30.2-14.8,37.1-24.3,42.1c-6,3.2-8.4,4.7-8.7,9.8c-0.1,2.1,0.6,2.8,1.4,3.3c3,1.9,10.2,1.6,18.4-2.7
	c6.2-3.3,26.6-16.5,27.6-49.4c0.7-24-4.4-41.4-15.1-51.4c-10.8-10.1-25.2-11.1-35.4-10.1c-5.4,0.5-9.8-0.8-13.2-3.9
	c-5.9-5.5-6.4-15.1-6.3-21.8c0.1-5.7-1.4-10-4.9-13.5c-3.8,18.9-32.6,31.2-71,30c-46.6-1.4-72.2-11.5-72.2-28.4
	c0-16.8,11.6-25.9,73.1-25.9c19.5,0,35.2,1.2,47.7,3.7c-6.6-4.1-16-8-28.9-11.1c-15.8-3.8-29.5-4.2-41.7-4.6
	c-19.2-0.6-34.4-1.1-40-16.6c-2.8-7.5-0.2-12.8,2.3-15.9c15.3-18.2,74.6-9.1,92.4-5.8c11.4,2.1,18.6-2,21.6-6.5
	c2.5-3.8,2.5-8.3,0-12.2c-2.3-3.6-12.7-14.9-48-9c-50.7,8.5-85.2,4.9-97.4-10.3c-4.5-5.5-5.4-12.3-2.7-19C85.1,19,102.6,8.9,124.6,6
	c2.8-0.4,5.4,1.6,5.7,4.4c0.4,2.8-1.6,5.4-4.4,5.7c-20.8,2.7-33.5,12-36.6,19.5c-1.3,3.2-0.9,6.1,1.2,8.7
	c7.3,9.1,34.2,15.6,87.7,6.6c40.4-6.8,54.2,7.2,58.3,13.5c4.7,7.3,4.7,16.3-0.1,23.4c-6.1,9.2-18.4,13.3-32,10.9
	c-48.1-8.8-76.6-4.9-82.7,2.3c-0.9,1.1-1.7,2.6-0.6,5.7c3.1,8.6,12.2,9.3,30.7,9.9c12,0.4,26.9,0.9,43.7,4.9
	c24.9,6,41.5,15.9,47.3,27.9c3.7,1.9,6.7,4.1,9.1,6.6c5.4,5.5,8,12.5,7.8,20.9c-0.2,7.3,0.8,12.1,3,14.1c0.4,0.4,1.7,1.6,5.2,1.2
	c12.3-1.2,29.8,0.1,43.4,12.8c13,12.2,19.2,32.1,18.4,59.2c-1.2,38.5-25.6,54.3-33.1,58.2c-10.9,5.7-22,6.6-28.7,2.2
	c-4.2-2.7-6.4-7.2-6.1-12.5c0.7-11.1,7.8-14.9,14.1-18.3c8.6-4.5,17.4-9.2,18.9-33.7c0.8-12.5-2.8-21.8-10-26.4
	c-5.4-3.4-12.4-3.7-17.9-0.6c-2.9,1.6-7.8,5.5-7.8,13.6c0,20.5-0.1,43.6-0.1,62c0,12.1-0.1,22.1-0.1,28
	C259.3,375.2,232.7,394.6,180.3,394.6z M174.6,149.3c-62.8,0-62.8,9.8-62.8,15.7c0,7.8,19.5,16.8,62.3,18.2
	c37.4,1.1,59.2-10.8,60.8-22.5c0.2-1.2,0.1-2.4-0.2-3.7C222.5,151.8,202.7,149.3,174.6,149.3z"/>
<linearGradient id="SVGID_10_" gradientUnits="userSpaceOnUse" x1="91.4988" y1="199.9592" x2="316.8958" y2="199.9592">
	<stop  offset="0" style="stop-color:#001C2A"/>
	<stop  offset="0.1592" style="stop-color:#002133"/>
	<stop  offset="0.4238" style="stop-color:#00304D"/>
	<stop  offset="0.7592" style="stop-color:#004876"/>
	<stop  offset="0.9944" style="stop-color:#005B97"/>
</linearGradient>
<path class="st10" d="M128,394.9c-0.7,0-1.3-0.1-2-0.3c-0.4-0.1-10.3-3.7-22.3-15.4c-12-11.7-13.2-31.8-11.5-75.2
	c1.2-32,1.2-67.3,1.2-101.5c0-78.3,0-145.9,13.5-169.7C123.3,3.6,140,4.1,180.3,5.5c10.5,0.3,22.5,0.7,36.8,0.7
	c70.6,0,99.3,7.8,99.3,86.2c0,8.5,0.1,19,0.2,30.9c1,115.3,0,240.4-23.7,264.3c-4.2,4.2-8.4,5.1-11.3,5.1c-4.1,0-9.4,0.1-15.6,0.3
	c-41.4,0.9-118.4,2.6-143.5-21.9c-5.8-5.7-8.8-12.5-8.8-20.2c0-28.7,1.9-102.4,3.7-167.5c1.3-51,2.5-95.1,2.5-108.5
	c0-9.6,2.5-16.7,7.6-21.7c10.2-10,28-9.5,55-8.9c7,0.2,15,0.3,23.4,0.3l7.3,0c29.7-0.1,51.2-0.1,64.7,13.3
	c9.1,9.1,13.4,23.6,13.4,45.5c0,5,0,10.7,0,17.1c0.4,119.4-2.6,195.7-18.8,207.3c-5.3,3.8-15,5.3-30.3,7.4
	c-3.3,0.4-6.8,0.9-10.5,1.5c3.7,4.4,5.6,9.6,5.6,15.3c0,16.2-13.2,24.7-26.2,24.7s-26.2-8.5-26.2-24.7c0-8.7,5.1-14.6,12.9-18.7
	c-18.2-3.9-40.4-4-50.6-3.4c-3.4,0-6.3-2.4-6.5-5.8c-0.2-3.4,2.4-6.3,5.8-6.5c5.3-0.3,46.3-2.1,71.2,9.1c7.5-1.6,15.5-2.7,22.9-3.7
	c10.2-1.4,21.7-3,24.8-5.2c1.4-1,8.7-9.5,12-76.8c2-40.9,1.8-88.8,1.7-120.5c0-6.4,0-12.1,0-17.1c0-18.5-3.1-30.2-9.8-36.8
	c-9.9-9.9-29.2-9.8-55.9-9.7l-7.3,0c-8.5,0-16.6-0.2-23.6-0.4c-23-0.5-39.6-0.9-46.1,5.4c-1.7,1.6-3.9,4.8-3.9,12.9
	c0,13.6-1.2,57.7-2.5,108.9c-1.7,65-3.7,138.6-3.7,167.1c0,4.3,1.7,8,5.1,11.4c21.4,20.9,97.9,19.2,134.6,18.4
	c6.3-0.1,11.7-0.3,15.9-0.3c0.3,0,1.1,0,2.5-1.4c22.1-22.3,20.8-179.8,20.2-255.5c-0.1-11.9-0.2-22.5-0.2-31
	c0-66.6-17.6-73.9-87-73.9c-14.6,0-26.6-0.4-37.2-0.7c-39-1.3-49.5-1.6-62.4,21.1c-11.9,21-11.9,93.5-11.9,163.7
	c0,34.3,0,69.7-1.2,102c-1.5,38-0.7,57.6,7.8,65.9c9.9,9.6,17.7,12.5,17.8,12.5c3.2,1.2,4.9,4.7,3.7,7.9
	C132.9,393.3,130.5,394.9,128,394.9z M216,339.6c-10.5,2.6-18.9,6.4-18.9,12.3c0,9.7,8.7,12.3,13.9,12.3c5.2,0,13.9-2.6,13.9-12.3
	c0-3.4-1.3-6.2-4.1-8.8C219.5,341.8,217.8,340.6,216,339.6z"/>
<linearGradient id="SVGID_11_" gradientUnits="userSpaceOnUse" x1="113.7313" y1="192.0408" x2="294.6632" y2="192.0408">
	<stop  offset="0" style="stop-color:#FFFFFF"/>
	<stop  offset="0.9944" style="stop-color:#FFF8F1"/>
</linearGradient>
<path class="st11" d="M288.8,274.6c-4.1,0-11.8-0.8-23.2-5.1c-10.9-4.1-16.7-9.4-19.2-12.3c-13.3,6.1-83.8,35-117.4-14.2
	c-27.6-40.3-14.1-84.2,11.6-109.8c26.1-26.1,60.3-31.1,87.1-12.8c8.9,6.1,14.3,14.4,15.4,23.3c7.5,1.6,20,7.7,24.9,30.6
	c4.2,19.5,0.4,37.7-10.4,50c-8.4,9.5-20.1,14.3-32.2,13.2c-5.8-0.5-10.2-3-13-7.3c-1.8-2.7-2.8-6-3.2-9.4
	c-3.7,7.4-8.3,13.9-13.4,14.9c-2.2,0.5-5.6,0.2-8.9-3.8c-5.2-6.3-5.3-15.7-5.4-23.3c0-3.5-0.1-9.5-1.3-10.2
	c-0.2-0.1-1.3-0.2-3.8,1.1c-9.3,4.8-14.9,28.3-16.3,37c-0.2,1.5-1.7,2.6-3.2,2.5c-1.6-0.2-2.7-1.5-2.6-3.1c0.1-1.2,1.1-18,4.1-37.9
	c-6.5,1.3-11,1-11.1,1c-1.6-0.1-2.8-1.5-2.7-3.1c0.1-1.6,1.5-2.8,3.1-2.7c0.5,0,5.3,0.3,11.6-1.2c2.1-12.7,4.9-26.1,8.8-37.1
	c6.7-19.3,19.2-28.1,27.4-25.6c2.8,0.9,11.4,5.4,5.5,26.6c-7.3,26.1-23.7,36.4-36.5,40.5c-0.5,3.5-1,6.9-1.5,10.2
	c2.8-5.4,6.3-10.1,10.6-12.3c1.5-0.8,6-3.1,9.5-0.9c3.9,2.4,4,8,4.1,15.1c0.1,7,0.2,14.9,4,19.6c1.7,2.1,2.8,1.9,3.2,1.8
	c5.5-1.1,12.6-17.6,16.7-30.6c0.5-1.9,0.9-3.1,1-3.3c0.5-1.5,2.1-2.3,3.6-1.8c1.5,0.5,2.4,2.1,1.9,3.6c-0.2,0.8-0.6,1.9-1,3.4
	c-1.8,7-3.8,19.3,0.5,25.8c1.8,2.8,4.6,4.3,8.6,4.7c10.2,0.9,20.2-3.2,27.3-11.2c9.6-10.9,12.9-27.3,9.1-44.9
	c-4-18.4-13-24-19.1-25.8c-0.1,0.9-0.2,1.8-0.4,2.7c-1.6,8.1-6.5,14.4-12.3,15.7c-4,0.9-7.9-0.8-10.7-4.6c-2.6-3.5-2.7-7.8-0.3-11.6
	c3.2-5.1,10.2-8.5,17.6-8.7c-0.9-5.4-4.1-12.1-12.7-18c-29.6-20.3-61.4-6.1-79.7,12.1c-23.9,23.9-36.6,64.9-10.9,102.4
	C168,289.7,245.2,251.4,246,251c1.4-0.7,3-0.2,3.8,1.1c0,0,4.4,6.9,17.9,11.9c6.7,2.5,11.9,3.7,15.7,4.3c-3.1-2.8-7-6.7-11.4-11.8
	c-10.2-11.8-10.9-19.8-11-20.6c-0.1-1.6,1.2-3,2.8-3.1c1.6-0.1,3,1.2,3.1,2.8c0,0,0.6,6.8,9.5,17.1c9.5,11,16.9,16.3,17,16.4
	c0.9,0.7,1.4,1.8,1.2,3c-0.2,1.1-1.1,2-2.3,2.3C292.2,274.3,291,274.6,288.8,274.6z M192.5,134.8c-5,0-13.6,7.1-18.9,22.1
	c-3.4,9.8-6,21.6-8,33.2c10.8-4.2,23.7-13.8,29.8-35.7c3.3-12,1.6-18.4-1.6-19.4C193.4,134.9,193,134.8,192.5,134.8z M237.3,149.1
	c-5.9,0.1-10.9,2.8-12.9,6c-1.1,1.8-1.1,3.4,0.1,5c2.1,2.9,4,2.5,4.7,2.4c2.9-0.6,6.6-4.7,7.9-11.1
	C237.2,150.7,237.3,150,237.3,149.1z"/>
</svg>
