<?xml version="1.0" encoding="UTF-8" standalone="no"?>
<svg width="344px" height="150px" viewBox="0 0 344 150" version="1.1" xmlns="http://www.w3.org/2000/svg" xmlns:xlink="http://www.w3.org/1999/xlink">
    <!-- Generator: Sketch 40.3 (33839) - http://www.bohemiancoding.com/sketch -->
    <title>marketime_t_lung_alb@svg</title>
    <desc>Created with Sketch.</desc>
    <defs></defs>
    <g id="Page-1" stroke="none" stroke-width="1" fill="none" fill-rule="evenodd">
        <g id="marketime_t_lung_alb" fill="#FFFFFF">
            <path d="M32.04,96.496 L49.248,55.024 L57.168,55.024 L57.168,106 L51.984,106 L51.984,61.936 L51.84,61.936 L33.408,106 L30.672,106 L12.24,61.936 L12.096,61.936 L12.096,106 L6.912,106 L6.912,55.024 L14.832,55.024 L32.04,96.496 Z M88.416,89.224 C87.215994,89.224 85.716009,89.2839994 83.916,89.404 C82.115991,89.5240006 80.3880083,89.8119977 78.732,90.268 C77.0759917,90.7240023 75.6600059,91.4319952 74.484,92.392 C73.3079941,93.3520048 72.72,94.6719916 72.72,96.352 C72.72,97.4560055 72.9479977,98.403996 73.404,99.196 C73.8600023,99.988004 74.4719962,100.635997 75.24,101.14 C76.0080038,101.644003 76.8599953,102.003999 77.796,102.22 C78.7320047,102.436001 79.6799952,102.544 80.64,102.544 C82.3680086,102.544 83.8679936,102.256003 85.14,101.68 C86.4120064,101.103997 87.4799957,100.324005 88.344,99.34 C89.2080043,98.3559951 89.843998,97.2040066 90.252,95.884 C90.660002,94.5639934 90.864,93.1600074 90.864,91.672 L90.864,89.224 L88.416,89.224 Z M90.864,85.336 L90.864,84.472 C90.864,78.663971 87.9840288,75.76 82.224,75.76 C78.2879803,75.76 74.8560146,77.0799868 71.928,79.72 L69.048,76.336 C72.2160158,73.0719837 76.9679683,71.44 83.304,71.44 C84.9360082,71.44 86.5079924,71.6799976 88.02,72.16 C89.5320076,72.6400024 90.8399945,73.3719951 91.944,74.356 C93.0480055,75.3400049 93.9359966,76.5759926 94.608,78.064 C95.2800034,79.5520074 95.616,81.3279897 95.616,83.392 L95.616,98.44 C95.616,99.7360065 95.6759994,101.091993 95.796,102.508 C95.9160006,103.924007 96.0479993,105.087995 96.192,106 L91.584,106 C91.4399993,105.183996 91.3320004,104.296005 91.26,103.336 C91.1879996,102.375995 91.152,101.440005 91.152,100.528 L91.008,100.528 C89.615993,102.784011 87.9720095,104.403995 86.076,105.388 C84.1799905,106.372005 81.8640137,106.864 79.128,106.864 C77.6399926,106.864 76.200007,106.660002 74.808,106.252 C73.415993,105.843998 72.1800054,105.220004 71.1,104.38 C70.0199946,103.539996 69.1560032,102.508006 68.508,101.284 C67.8599968,100.059994 67.536,98.6320082 67.536,97 C67.536,94.2639863 68.2439929,92.1160078 69.66,90.556 C71.0760071,88.9959922 72.8519893,87.8320038 74.988,87.064 C77.1240107,86.2959962 79.4039879,85.816001 81.828,85.624 C84.2520121,85.431999 86.4719899,85.336 88.488,85.336 L90.864,85.336 Z M107.136,82.816 C107.136,81.3279926 107.1,79.8160077 107.028,78.28 C106.956,76.7439923 106.896,74.7520122 106.848,72.304 L111.528,72.304 L111.528,78.568 L111.672,78.568 C112.008002,77.6559954 112.487997,76.7800042 113.112,75.94 C113.736003,75.0999958 114.491996,74.3440034 115.38,73.672 C116.268004,72.9999966 117.299994,72.460002 118.476,72.052 C119.652006,71.643998 120.983993,71.44 122.472,71.44 C123.816007,71.44 124.991995,71.5839986 126,71.872 L125.064,76.552 C124.439997,76.3119988 123.528006,76.192 122.328,76.192 C120.503991,76.192 118.944006,76.5399965 117.648,77.236 C116.351994,77.9320035 115.272004,78.8199946 114.408,79.9 C113.543996,80.9800054 112.908002,82.1439938 112.5,83.392 C112.091998,84.6400062 111.888,85.8399942 111.888,86.992 L111.888,106 L107.136,106 L107.136,82.816 Z M135.288,87.496 L151.2,72.304 L158.328,72.304 L141.552,87.712 L160.128,106 L152.784,106 L135.288,88.288 L135.288,106 L130.536,106 L130.536,51.568 L135.288,51.568 L135.288,87.496 Z M191.448,86.56 C191.448,83.3439839 190.48801,80.74001 188.568,78.748 C186.64799,76.75599 183.960017,75.76 180.504,75.76 C178.967992,75.76 177.480007,76.059997 176.04,76.66 C174.599993,77.260003 173.340005,78.063995 172.26,79.072 C171.179995,80.080005 170.316003,81.2319935 169.668,82.528 C169.019997,83.8240065 168.696,85.167993 168.696,86.56 L191.448,86.56 Z M168.552,90.448 C168.696001,92.1280084 169.103997,93.7119926 169.776,95.2 C170.448003,96.6880074 171.335994,97.9719946 172.44,99.052 C173.544006,100.132005 174.815993,100.983997 176.256,101.608 C177.696007,102.232003 179.255992,102.544 180.936,102.544 C183.480013,102.544 185.675991,101.956006 187.524,100.78 C189.372009,99.6039941 190.775995,98.2480077 191.736,96.712 L195.408,99.736 C193.39199,102.280013 191.172012,104.103994 188.748,105.208 C186.323988,106.312006 183.720014,106.864 180.936,106.864 C178.439988,106.864 176.124011,106.420004 173.988,105.532 C171.851989,104.643996 170.016008,103.408008 168.48,101.824 C166.943992,100.239992 165.732004,98.3680108 164.844,96.208 C163.955996,94.0479892 163.512,91.6960127 163.512,89.152 C163.512,86.6079873 163.943996,84.2560108 164.808,82.096 C165.672004,79.9359892 166.871992,78.0640079 168.408,76.48 C169.944008,74.8959921 171.74399,73.6600044 173.808,72.772 C175.87201,71.8839956 178.103988,71.44 180.504,71.44 C183.048013,71.44 185.32799,71.8959954 187.344,72.808 C189.36001,73.7200046 191.051993,74.9319924 192.42,76.444 C193.788007,77.9560076 194.831996,79.7319898 195.552,81.772 C196.272004,83.8120102 196.632,85.9839885 196.632,88.288 L196.632,90.448 L168.552,90.448 Z M232.2,59.344 C232.2,60.352005 231.840004,61.1799968 231.12,61.828 C230.399996,62.4760032 229.608004,62.8 228.744,62.8 C227.879996,62.8 227.088004,62.4760032 226.368,61.828 C225.647996,61.1799968 225.288,60.352005 225.288,59.344 C225.288,58.335995 225.647996,57.5080032 226.368,56.86 C227.088004,56.2119968 227.879996,55.888 228.744,55.888 C229.608004,55.888 230.399996,56.2119968 231.12,56.86 C231.840004,57.5080032 232.2,58.335995 232.2,59.344 L232.2,59.344 Z M231.12,106 L226.368,106 L226.368,72.304 L231.12,72.304 L231.12,106 Z M242.568,79.792 C242.568,78.5439938 242.532,77.2960062 242.46,76.048 C242.388,74.7999938 242.304,73.5520062 242.208,72.304 L247.32,72.304 L247.32,77.416 L247.464,77.416 C248.616006,75.4479902 250.21199,73.960005 252.252,72.952 C254.29201,71.943995 256.31999,71.44 258.336,71.44 C259.248005,71.44 260.219995,71.535999 261.252,71.728 C262.284005,71.920001 263.279995,72.2679975 264.24,72.772 C265.200005,73.2760025 266.099996,73.9839954 266.94,74.896 C267.780004,75.8080046 268.487997,76.9839928 269.064,78.424 C270.024005,76.2639892 271.54799,74.5600062 273.636,73.312 C275.72401,72.0639938 277.895989,71.44 280.152,71.44 C284.472022,71.44 287.66399,72.5799886 289.728,74.86 C291.79201,77.1400114 292.824,80.3919789 292.824,84.616 L292.824,106 L288.072,106 L288.072,86.344 C288.072,82.935983 287.472006,80.3200091 286.272,78.496 C285.071994,76.6719909 282.840016,75.76 279.576,75.76 C277.799991,75.76 276.312006,76.1079965 275.112,76.804 C273.911994,77.5000035 272.940004,78.4239942 272.196,79.576 C271.451996,80.7280058 270.912002,82.0359927 270.576,83.5 C270.239998,84.9640073 270.072,86.4879921 270.072,88.072 L270.072,106 L265.32,106 L265.32,86.344 C265.32,82.935983 264.720006,80.3200091 263.52,78.496 C262.319994,76.6719909 260.088016,75.76 256.824,75.76 C256.535999,75.76 255.876005,75.855999 254.844,76.048 C253.811995,76.240001 252.744006,76.7679957 251.64,77.632 C250.535994,78.4960043 249.540004,79.7919914 248.652,81.52 C247.763996,83.2480086 247.32,85.6479846 247.32,88.72 L247.32,106 L242.568,106 L242.568,79.792 Z M330.12,86.56 C330.12,83.3439839 329.16001,80.74001 327.24,78.748 C325.31999,76.75599 322.632017,75.76 319.176,75.76 C317.639992,75.76 316.152007,76.059997 314.712,76.66 C313.271993,77.260003 312.012005,78.063995 310.932,79.072 C309.851995,80.080005 308.988003,81.2319935 308.34,82.528 C307.691997,83.8240065 307.368,85.167993 307.368,86.56 L330.12,86.56 Z M207.59,50 L207.59,107 L214.07,107 L214.07,50 L339,50 L339,43 L6,43 L6,50 L207.59,50 Z M307.224,90.448 C307.368001,92.1280084 307.775997,93.7119926 308.448,95.2 C309.120003,96.6880074 310.007994,97.9719946 311.112,99.052 C312.216006,100.132005 313.487993,100.983997 314.928,101.608 C316.368007,102.232003 317.927992,102.544 319.608,102.544 C322.152013,102.544 324.347991,101.956006 326.196,100.78 C328.044009,99.6039941 329.447995,98.2480077 330.408,96.712 L334.08,99.736 C332.06399,102.280013 329.844012,104.103994 327.42,105.208 C324.995988,106.312006 322.392014,106.864 319.608,106.864 C317.111988,106.864 314.796011,106.420004 312.66,105.532 C310.523989,104.643996 308.688008,103.408008 307.152,101.824 C305.615992,100.239992 304.404004,98.3680108 303.516,96.208 C302.627996,94.0479892 302.184,91.6960127 302.184,89.152 C302.184,86.6079873 302.615996,84.2560108 303.48,82.096 C304.344004,79.9359892 305.543992,78.0640079 307.08,76.48 C308.616008,74.8959921 310.41599,73.6600044 312.48,72.772 C314.54401,71.8839956 316.775988,71.44 319.176,71.44 C321.720013,71.44 323.99999,71.8959954 326.016,72.808 C328.03201,73.7200046 329.723993,74.9319924 331.092,76.444 C332.460007,77.9560076 333.503996,79.7319898 334.224,81.772 C334.944004,83.8120102 335.304,85.9839885 335.304,88.288 L335.304,90.448 L307.224,90.448 Z" id="Combined-Shape"></path>
        </g>
    </g>
</svg>