<?xml version="1.0" encoding="UTF-8" standalone="no"?>
<svg width="344px" height="150px" viewBox="0 0 344 150" version="1.1" xmlns="http://www.w3.org/2000/svg" xmlns:xlink="http://www.w3.org/1999/xlink">
    <!-- Generator: Sketch 40.3 (33839) - http://www.bohemiancoding.com/sketch -->
    <title>marketime_t_inalt_alb@svg</title>
    <desc>Created with Sketch.</desc>
    <defs></defs>
    <g id="Page-1" stroke="none" stroke-width="1" fill="none" fill-rule="evenodd">
        <g id="marketime_t_inalt_alb" fill="#FFFFFF">
            <g id="Group" transform="translate(6.000000, 4.000000)">
                <path d="M26.04,67.496 L43.248,26.024 L51.168,26.024 L51.168,77 L45.984,77 L45.984,32.936 L45.84,32.936 L27.408,77 L24.672,77 L6.24,32.936 L6.096,32.936 L6.096,77 L0.912,77 L0.912,26.024 L8.832,26.024 L26.04,67.496 Z M82.416,60.224 C81.215994,60.224 79.716009,60.2839994 77.916,60.404 C76.115991,60.5240006 74.3880083,60.8119977 72.732,61.268 C71.0759917,61.7240023 69.6600059,62.4319952 68.484,63.392 C67.3079941,64.3520048 66.72,65.6719916 66.72,67.352 C66.72,68.4560055 66.9479977,69.403996 67.404,70.196 C67.8600023,70.988004 68.4719962,71.6359975 69.24,72.14 C70.0080038,72.6440025 70.8599953,73.0039989 71.796,73.22 C72.7320047,73.4360011 73.6799952,73.544 74.64,73.544 C76.3680086,73.544 77.8679936,73.2560029 79.14,72.68 C80.4120064,72.1039971 81.4799957,71.3240049 82.344,70.34 C83.2080043,69.3559951 83.843998,68.2040066 84.252,66.884 C84.660002,65.5639934 84.864,64.1600074 84.864,62.672 L84.864,60.224 L82.416,60.224 Z M84.864,56.336 L84.864,55.472 C84.864,49.663971 81.9840288,46.76 76.224,46.76 C72.2879803,46.76 68.8560146,48.0799868 65.928,50.72 L63.048,47.336 C66.2160158,44.0719837 70.9679683,42.44 77.304,42.44 C78.9360082,42.44 80.5079924,42.6799976 82.02,43.16 C83.5320076,43.6400024 84.8399945,44.3719951 85.944,45.356 C87.0480055,46.3400049 87.9359966,47.5759926 88.608,49.064 C89.2800034,50.5520074 89.616,52.3279897 89.616,54.392 L89.616,69.44 C89.616,70.7360065 89.6759994,72.0919929 89.796,73.508 C89.9160006,74.9240071 90.0479993,76.0879954 90.192,77 L85.584,77 C85.4399993,76.1839959 85.3320004,75.2960048 85.26,74.336 C85.1879996,73.3759952 85.152,72.4400046 85.152,71.528 L85.008,71.528 C83.615993,73.7840113 81.9720095,75.4039951 80.076,76.388 C78.1799905,77.3720049 75.8640137,77.864 73.128,77.864 C71.6399926,77.864 70.200007,77.660002 68.808,77.252 C67.415993,76.843998 66.1800054,76.2200042 65.1,75.38 C64.0199946,74.5399958 63.1560032,73.5080061 62.508,72.284 C61.8599968,71.0599939 61.536,69.6320082 61.536,68 C61.536,65.2639863 62.2439929,63.1160078 63.66,61.556 C65.0760071,59.9959922 66.8519893,58.8320038 68.988,58.064 C71.1240107,57.2959962 73.4039879,56.816001 75.828,56.624 C78.2520121,56.431999 80.4719899,56.336 82.488,56.336 L84.864,56.336 Z M101.136,53.816 C101.136,52.3279926 101.1,50.8160077 101.028,49.28 C100.956,47.7439923 100.896,45.7520122 100.848,43.304 L105.528,43.304 L105.528,49.568 L105.672,49.568 C106.008002,48.6559954 106.487997,47.7800042 107.112,46.94 C107.736003,46.0999958 108.491996,45.3440034 109.38,44.672 C110.268004,43.9999966 111.299994,43.460002 112.476,43.052 C113.652006,42.643998 114.983993,42.44 116.472,42.44 C117.816007,42.44 118.991995,42.5839986 120,42.872 L119.064,47.552 C118.439997,47.3119988 117.528006,47.192 116.328,47.192 C114.503991,47.192 112.944006,47.5399965 111.648,48.236 C110.351994,48.9320035 109.272004,49.8199946 108.408,50.9 C107.543996,51.9800054 106.908002,53.1439938 106.5,54.392 C106.091998,55.6400062 105.888,56.8399942 105.888,57.992 L105.888,77 L101.136,77 L101.136,53.816 Z M129.288,58.496 L145.2,43.304 L152.328,43.304 L135.552,58.712 L154.128,77 L146.784,77 L129.288,59.288 L129.288,77 L124.536,77 L124.536,22.568 L129.288,22.568 L129.288,58.496 Z M185.448,57.56 C185.448,54.3439839 184.48801,51.74001 182.568,49.748 C180.64799,47.75599 177.960017,46.76 174.504,46.76 C172.967992,46.76 171.480007,47.059997 170.04,47.66 C168.599993,48.260003 167.340005,49.063995 166.26,50.072 C165.179995,51.080005 164.316003,52.2319935 163.668,53.528 C163.019997,54.8240065 162.696,56.167993 162.696,57.56 L185.448,57.56 Z M162.552,61.448 C162.696001,63.1280084 163.103997,64.7119926 163.776,66.2 C164.448003,67.6880074 165.335994,68.9719946 166.44,70.052 C167.544006,71.1320054 168.815993,71.9839969 170.256,72.608 C171.696007,73.2320031 173.255992,73.544 174.936,73.544 C177.480013,73.544 179.675991,72.9560059 181.524,71.78 C183.372009,70.6039941 184.775995,69.2480077 185.736,67.712 L189.408,70.736 C187.39199,73.2800127 185.172012,75.1039945 182.748,76.208 C180.323988,77.3120055 177.720014,77.864 174.936,77.864 C172.439988,77.864 170.124011,77.4200044 167.988,76.532 C165.851989,75.6439956 164.016008,74.4080079 162.48,72.824 C160.943992,71.2399921 159.732004,69.3680108 158.844,67.208 C157.955996,65.0479892 157.512,62.6960127 157.512,60.152 C157.512,57.6079873 157.943996,55.2560108 158.808,53.096 C159.672004,50.9359892 160.871992,49.0640079 162.408,47.48 C163.944008,45.8959921 165.74399,44.6600044 167.808,43.772 C169.87201,42.8839956 172.103988,42.44 174.504,42.44 C177.048013,42.44 179.32799,42.8959954 181.344,43.808 C183.36001,44.7200046 185.051993,45.9319924 186.42,47.444 C187.788007,48.9560076 188.831996,50.7319898 189.552,52.772 C190.272004,54.8120102 190.632,56.9839885 190.632,59.288 L190.632,61.448 L162.552,61.448 Z" id="Marke"></path>
                <polygon id="T" points="214.14 128 201.18 128 201.18 12.44 158.52 12.44 158.52 0.56 256.8 0.56 256.8 12.44 214.14 12.44"></polygon>
                <path d="M231.096,80.344 C231.096,81.352005 230.736004,82.1799968 230.016,82.828 C229.295996,83.4760032 228.504004,83.8 227.64,83.8 C226.775996,83.8 225.984004,83.4760032 225.264,82.828 C224.543996,82.1799968 224.184,81.352005 224.184,80.344 C224.184,79.335995 224.543996,78.5080032 225.264,77.86 C225.984004,77.2119968 226.775996,76.888 227.64,76.888 C228.504004,76.888 229.295996,77.2119968 230.016,77.86 C230.736004,78.5080032 231.096,79.335995 231.096,80.344 L231.096,80.344 Z M230.016,127 L225.264,127 L225.264,93.304 L230.016,93.304 L230.016,127 Z M241.464,100.792 C241.464,99.5439938 241.428,98.2960062 241.356,97.048 C241.284,95.7999938 241.2,94.5520062 241.104,93.304 L246.216,93.304 L246.216,98.416 L246.36,98.416 C247.512006,96.4479902 249.10799,94.960005 251.148,93.952 C253.18801,92.943995 255.21599,92.44 257.232,92.44 C258.144005,92.44 259.115995,92.535999 260.148,92.728 C261.180005,92.920001 262.175995,93.2679975 263.136,93.772 C264.096005,94.2760025 264.995996,94.9839954 265.836,95.896 C266.676004,96.8080046 267.383997,97.9839928 267.96,99.424 C268.920005,97.2639892 270.44399,95.5600062 272.532,94.312 C274.62001,93.0639938 276.791989,92.44 279.048,92.44 C283.368022,92.44 286.55999,93.5799886 288.624,95.86 C290.68801,98.1400114 291.72,101.391979 291.72,105.616 L291.72,127 L286.968,127 L286.968,107.344 C286.968,103.935983 286.368006,101.320009 285.168,99.496 C283.967994,97.6719909 281.736016,96.76 278.472,96.76 C276.695991,96.76 275.208006,97.1079965 274.008,97.804 C272.807994,98.5000035 271.836004,99.4239942 271.092,100.576 C270.347996,101.728006 269.808002,103.035993 269.472,104.5 C269.135998,105.964007 268.968,107.487992 268.968,109.072 L268.968,127 L264.216,127 L264.216,107.344 C264.216,103.935983 263.616006,101.320009 262.416,99.496 C261.215994,97.6719909 258.984016,96.76 255.72,96.76 C255.431999,96.76 254.772005,96.855999 253.74,97.048 C252.707995,97.240001 251.640006,97.7679957 250.536,98.632 C249.431994,99.4960043 248.436004,100.791991 247.548,102.52 C246.659996,104.248009 246.216,106.647985 246.216,109.72 L246.216,127 L241.464,127 L241.464,100.792 Z M329.016,107.56 C329.016,104.343984 328.05601,101.74001 326.136,99.748 C324.21599,97.75599 321.528017,96.76 318.072,96.76 C316.535992,96.76 315.048007,97.059997 313.608,97.66 C312.167993,98.260003 310.908005,99.063995 309.828,100.072 C308.747995,101.080005 307.884003,102.231994 307.236,103.528 C306.587997,104.824006 306.264,106.167993 306.264,107.56 L329.016,107.56 Z M306.12,111.448 C306.264001,113.128008 306.671997,114.711993 307.344,116.2 C308.016003,117.688007 308.903994,118.971995 310.008,120.052 C311.112006,121.132005 312.383993,121.983997 313.824,122.608 C315.264007,123.232003 316.823992,123.544 318.504,123.544 C321.048013,123.544 323.243991,122.956006 325.092,121.78 C326.940009,120.603994 328.343995,119.248008 329.304,117.712 L332.976,120.736 C330.95999,123.280013 328.740012,125.103994 326.316,126.208 C323.891988,127.312006 321.288014,127.864 318.504,127.864 C316.007988,127.864 313.692011,127.420004 311.556,126.532 C309.419989,125.643996 307.584008,124.408008 306.048,122.824 C304.511992,121.239992 303.300004,119.368011 302.412,117.208 C301.523996,115.047989 301.08,112.696013 301.08,110.152 C301.08,107.607987 301.511996,105.256011 302.376,103.096 C303.240004,100.935989 304.439992,99.0640079 305.976,97.48 C307.512008,95.8959921 309.31199,94.6600044 311.376,93.772 C313.44001,92.8839956 315.671988,92.44 318.072,92.44 C320.616013,92.44 322.89599,92.8959954 324.912,93.808 C326.92801,94.7200046 328.619993,95.9319924 329.988,97.444 C331.356007,98.9560076 332.399996,100.73199 333.12,102.772 C333.840004,104.81201 334.2,106.983988 334.2,109.288 L334.2,111.448 L306.12,111.448 Z" id="ime"></path>
            </g>
        </g>
    </g>
</svg>